<?xml version="1.0" standalone="no"?>
<!DOCTYPE svg PUBLIC "-//W3C//DTD SVG 20000303 Stylable//EN" "http://www.w3.org/TR/2000/03/WD-SVG-20000303/DTD/svg-20000303-stylable.dtd">
<svg width="800" height="500" xmlns="http://www.w3.org/2000/svg" xmlns:xlink="http://www.w3.org/1999/xlink">
<!--Created by MathGL library-->
<!--Title: -->
<!--CreationDate: Sat May  9 12:20:08 2015
-->

<defs><g id="nn_0000"><path d="	M 239 0 L 239 7 L 230 8 L 222 12 L 215 18 L 207 26 L 199 37 L 134 136 L 176 195 L 182 203 L 190 209 L 198 214 L 207 216 L 217 218 L 217 225 L 137 225 L 137 218 L 145 217 L 151 215 L 155 213 L 157 210 L 157 202 L 154 197 L 150 191 L 145 184 L 136 169 L 133 165 L 130 160 L 124 152 L 123 154 L 121 156 L 119 160 L 117 162 L 109 174 L 103 185 L 98 194 L 95 201 L 94 206 L 95 210 L 97 213 L 101 216 L 107 217 L 116 218 L 116 225 L 12 225 L 12 218 L 17 218 L 25 217 L 32 214 L 39 208 L 47 200 L 55 187 L 55 188 L 102 116 L 45 33 L 37 22 L 31 15 L 24 11 L 17 9 L 8 7 L 8 0 L 81 0 L 81 7 L 73 8 L 68 9 L 64 11 L 62 13 L 61 17 L 61 19 L 62 22 L 64 26 L 67 31 L 71 37 L 110 99 L 156 28 L 157 27 L 159 23 L 159 15 L 157 12 L 153 9 L 147 8 L 139 7 L 139 0 Z
"/></g></defs>
<defs><g id="nn_0002"><path d="	M 310 110 L 310 143 L 32 143 L 32 110 Z
"/></g></defs>
<defs><g id="nn_0003"><path d="	M 197 0 L 197 7 L 178 8 L 164 12 L 155 18 L 151 27 L 150 38 L 150 336 L 145 338 L 55 292 L 55 286 L 69 291 L 74 293 L 84 295 L 88 296 L 92 296 L 97 295 L 101 293 L 104 288 L 106 281 L 107 272 L 107 47 L 105 33 L 100 22 L 92 14 L 78 10 L 59 7 L 59 0 Z
"/></g></defs>
<defs><g id="nn_0004"><path d="	M 238 165 L 232 222 L 218 270 L 194 307 L 164 330 L 127 338 L 84 329 L 52 304 L 29 266 L 16 220 L 12 168 L 16 118 L 27 71 L 48 31 L 80 3 L 125 -6 L 168 2 L 200 29 L 222 67 L 234 114 L 238 165 Z
	M 190 162 L 187 108 L 179 65 L 166 33 L 148 13 L 125 6 L 102 13 L 84 33 L 71 65 L 63 109 L 60 165 L 63 220 L 71 265 L 84 298 L 101 318 L 124 325 L 148 318 L 166 298 L 179 265 L 187 219 L 190 162 Z
"/></g></defs>
<defs><g id="nn_0005"><path d="	M 90 22 L 89 30 L 85 38 L 79 44 L 71 49 L 63 50 L 54 49 L 46 45 L 40 39 L 37 31 L 35 22 L 37 13 L 40 6 L 46 0 L 54 -3 L 63 -5 L 71 -3 L 79 0 L 85 6 L 89 13 L 90 22 Z
"/></g></defs>
<defs><g id="nn_0006"><path d="	M 219 340 L 214 344 L 210 339 L 206 335 L 202 333 L 197 331 L 87 331 L 32 213 L 32 208 L 34 206 L 38 206 L 65 204 L 89 199 L 110 191 L 129 182 L 145 171 L 156 159 L 166 146 L 172 131 L 177 114 L 178 96 L 174 71 L 164 48 L 149 29 L 131 16 L 110 12 L 104 12 L 98 14 L 90 17 L 83 21 L 75 27 L 66 34 L 58 39 L 51 41 L 45 43 L 38 43 L 30 42 L 24 40 L 19 36 L 17 31 L 16 24 L 19 13 L 27 5 L 40 -1 L 58 -5 L 79 -6 L 99 -5 L 117 -2 L 134 1 L 149 8 L 164 17 L 182 33 L 196 51 L 206 71 L 211 95 L 213 122 L 213 137 L 211 150 L 207 162 L 202 174 L 195 185 L 178 205 L 159 220 L 137 232 L 108 241 L 70 249 L 90 291 L 188 291 L 192 292 L 198 294 L 200 296 L 201 298 Z
"/></g></defs>
<defs><g id="nn_0001"><path d="	M 238 225 L 171 225 L 171 218 L 179 217 L 186 216 L 190 213 L 193 210 L 194 205 L 194 202 L 193 201 L 193 198 L 192 196 L 143 59 L 88 184 L 82 196 L 81 201 L 81 204 L 82 209 L 85 212 L 90 215 L 98 217 L 109 218 L 109 225 L 7 225 L 7 218 L 14 217 L 21 214 L 26 211 L 30 206 L 33 200 L 99 60 L 105 47 L 111 35 L 116 24 L 121 9 L 119 2 L 116 -8 L 112 -21 L 106 -34 L 100 -44 L 96 -51 L 85 -62 L 80 -65 L 75 -66 L 71 -66 L 69 -65 L 66 -64 L 62 -63 L 63 -63 L 57 -60 L 52 -58 L 42 -56 L 36 -56 L 30 -57 L 24 -60 L 19 -65 L 16 -72 L 15 -79 L 17 -88 L 21 -96 L 28 -102 L 38 -106 L 50 -108 L 71 -105 L 90 -94 L 106 -76 L 122 -49 L 137 -11 L 213 192 L 217 202 L 221 208 L 226 213 L 231 216 L 238 218 Z
"/></g></defs>
<g fill="none" stroke="none" stroke-width="0.5">
<g stroke="#4c4c4c" stroke-dasharray=" 8.94427,8.94427" stroke-dashoffset="12.3082" stroke-width="1.11803"><path d=" M 141.935 88.7097 L 141.935 99.4624 L 141.935 110.215 L 141.935 120.968 L 141.935 131.72 L 141.935 142.473 L 141.935 153.226 L 141.935 163.978 L 141.935 174.731 L 141.935 185.484 L 141.935 196.237 L 141.935 206.989 L 141.935 217.742 L 141.935 228.495 L 141.935 239.247 L 141.935 250 L 141.935 260.753 L 141.935 271.505 L 141.935 282.258 L 141.935 293.011 L 141.935 303.763 L 141.935 314.516 L 141.935 325.269 L 141.935 336.021 L 141.935 346.774 L 141.935 357.527 L 141.935 368.28 L 141.935 379.032 L 141.935 389.785 L 141.935 400.538 L 141.935 389.785 L 141.935 379.032 L 141.935 368.28 L 141.935 357.527 L 141.935 346.774 L 141.935 336.021 L 141.935 325.269 L 141.935 314.516 L 141.935 303.763 L 141.935 293.011 L 141.935 282.258 L 141.935 271.505 L 141.935 260.753 L 141.935 250 L 141.935 239.247 L 141.935 228.495 L 141.935 217.742 L 141.935 206.989 L 141.935 196.237 L 141.935 185.484 L 141.935 174.731 L 141.935 163.978 L 141.935 153.226 L 141.935 142.473 L 141.935 131.72 L 141.935 120.968 L 141.935 110.215 L 141.935 99.4624 L 141.935 88.7097 L 159.14 88.7097 L 176.344 88.7097 L 193.548 88.7097 L 210.753 88.7097 L 227.957 88.7097 L 245.161 88.7097 L 262.366 88.7097 L 279.57 88.7097 L 296.774 88.7097 L 313.978 88.7097 L 331.183 88.7097 L 348.387 88.7097 L 365.591 88.7097 L 382.796 88.7097 L 400 88.7097 L 400 99.4624 L 400 110.215 L 400 120.968 L 400 131.72 L 400 142.473 L 400 153.226 L 400 163.978 L 400 174.731 L 400 185.484 L 400 196.237 L 400 206.989 L 400 217.742 L 400 228.495 L 400 239.247 L 400 250 L 400 260.753 L 400 271.505 L 400 282.258 L 400 293.011 L 400 303.763 L 400 314.516 L 400 325.269 L 400 336.021 L 400 346.774 L 400 357.527 L 400 368.28 L 400 379.032 L 400 389.785 L 400 400.538 L 400 411.29 L 417.204 411.29 L 434.409 411.29 L 451.613 411.29 L 468.817 411.29 L 486.022 411.29 L 503.226 411.29 L 520.43 411.29 L 537.634 411.29 L 554.839 411.29 L 572.043 411.29 L 589.247 411.29 L 606.452 411.29 L 623.656 411.29 L 640.86 411.29 L 658.065 411.29 L 640.86 411.29 L 623.656 411.29 L 606.452 411.29 L 589.247 411.29 L 572.043 411.29 L 554.839 411.29 L 537.634 411.29 L 520.43 411.29 L 503.226 411.29 L 486.022 411.29 L 468.817 411.29 L 451.613 411.29 L 434.409 411.29 L 417.204 411.29 L 400 411.29 L 382.796 411.29 L 365.591 411.29 L 348.387 411.29 L 331.183 411.29 L 313.978 411.29 L 296.774 411.29 L 279.57 411.29 L 262.366 411.29 L 245.161 411.29 L 227.957 411.29 L 210.753 411.29 L 193.548 411.29 L 176.344 411.29 L 159.14 411.29 L 141.935 411.29 L 141.935 400.538 L 141.935 411.29 L 159.14 411.29 L 176.344 411.29 L 193.548 411.29 L 210.753 411.29 L 227.957 411.29 L 245.161 411.29 L 262.366 411.29 L 279.57 411.29 L 296.774 411.29 L 313.978 411.29 L 331.183 411.29 L 348.387 411.29 L 365.591 411.29 L 382.796 411.29 L 400 411.29"/> </g>
<g stroke="#4c4c4c" stroke-dasharray=" 8.94427,8.94427" stroke-dashoffset="12.6994" stroke-width="1.11803"><path d=" M 270.968 411.29 L 270.968 400.538 L 270.968 389.785 L 270.968 379.032 L 270.968 368.28 L 270.968 357.527 L 270.968 346.774 L 270.968 336.021 L 270.968 325.269 L 270.968 314.516 L 270.968 303.763 L 270.968 293.011 L 270.968 282.258 L 270.968 271.505 L 270.968 260.753 L 270.968 250 L 270.968 239.247 L 270.968 228.495 L 270.968 217.742 L 270.968 206.989 L 270.968 196.237 L 270.968 185.484 L 270.968 174.731 L 270.968 163.978 L 270.968 153.226 L 270.968 142.473 L 270.968 131.72 L 270.968 120.968 L 270.968 110.215 L 270.968 99.4624 L 270.968 88.7097"/> </g>
<g stroke="#4c4c4c" stroke-dasharray=" 8.94427,8.94427" stroke-dashoffset="13.4819" stroke-width="1.11803"><path d=" M 529.032 411.29 L 529.032 400.538 L 529.032 389.785 L 529.032 379.032 L 529.032 368.28 L 529.032 357.527 L 529.032 346.774 L 529.032 336.021 L 529.032 325.269 L 529.032 314.516 L 529.032 303.763 L 529.032 293.011 L 529.032 282.258 L 529.032 271.505 L 529.032 260.753 L 529.032 250 L 529.032 239.247 L 529.032 228.495 L 529.032 217.742 L 529.032 206.989 L 529.032 196.237 L 529.032 185.484 L 529.032 174.731 L 529.032 163.978 L 529.032 153.226 L 529.032 142.473 L 529.032 131.72 L 529.032 120.968 L 529.032 110.215 L 529.032 99.4624 L 529.032 88.7097"/> </g>
<g stroke="#4c4c4c" stroke-dasharray=" 8.94427,8.94427" stroke-dashoffset="13.8731" stroke-width="1.11803"><path d=" M 658.065 411.29 L 658.065 400.538 L 658.065 389.785 L 658.065 379.032 L 658.065 368.28 L 658.065 357.527 L 658.065 346.774 L 658.065 336.021 L 658.065 325.269 L 658.065 314.516 L 658.065 303.763 L 658.065 293.011 L 658.065 282.258 L 658.065 271.505 L 658.065 260.753 L 658.065 250 L 658.065 239.247 L 658.065 228.495 L 658.065 217.742 L 658.065 206.989 L 658.065 196.237 L 658.065 185.484 L 658.065 174.731 L 658.065 163.978 L 658.065 153.226 L 658.065 142.473 L 658.065 131.72 L 658.065 120.968 L 658.065 110.215 L 658.065 99.4624 L 658.065 88.7097 L 640.86 88.7097 L 623.656 88.7097 L 606.452 88.7097 L 589.247 88.7097 L 572.043 88.7097 L 554.839 88.7097 L 537.634 88.7097 L 520.43 88.7097 L 503.226 88.7097 L 486.022 88.7097 L 468.817 88.7097 L 451.613 88.7097 L 434.409 88.7097 L 417.204 88.7097 L 400 88.7097"/> </g>
<g stroke="#4c4c4c" stroke-dasharray=" 8.94427,8.94427" stroke-dashoffset="0.579504" stroke-width="1.11803"><path d=" M 141.935 330.645 L 159.14 330.645 L 176.344 330.645 L 193.548 330.645 L 210.753 330.645 L 227.957 330.645 L 245.161 330.645 L 262.366 330.645 L 279.57 330.645 L 296.774 330.645 L 313.978 330.645 L 331.183 330.645 L 348.387 330.645 L 365.591 330.645 L 382.796 330.645 L 400 330.645 L 417.204 330.645 L 434.409 330.645 L 451.613 330.645 L 468.817 330.645 L 486.022 330.645 L 503.226 330.645 L 520.43 330.645 L 537.634 330.645 L 554.839 330.645 L 572.043 330.645 L 589.247 330.645 L 606.452 330.645 L 623.656 330.645 L 640.86 330.645 L 658.065 330.645"/> </g>
<g stroke="#4c4c4c" stroke-dasharray=" 8.94427,8.94427" stroke-dashoffset="4.78319" stroke-width="1.11803"><path d=" M 141.935 250 L 159.14 250 L 176.344 250 L 193.548 250 L 210.753 250 L 227.957 250 L 245.161 250 L 262.366 250 L 279.57 250 L 296.774 250 L 313.978 250 L 331.183 250 L 348.387 250 L 365.591 250 L 382.796 250 L 400 250 L 417.204 250 L 434.409 250 L 451.613 250 L 468.817 250 L 486.022 250 L 503.226 250 L 520.43 250 L 537.634 250 L 554.839 250 L 572.043 250 L 589.247 250 L 606.452 250 L 623.656 250 L 640.86 250 L 658.065 250"/> </g>
<g stroke="#4c4c4c" stroke-dasharray=" 8.94427,8.94427" stroke-dashoffset="8.98688" stroke-width="1.11803"><path d=" M 141.935 169.355 L 159.14 169.355 L 176.344 169.355 L 193.548 169.355 L 210.753 169.355 L 227.957 169.355 L 245.161 169.355 L 262.366 169.355 L 279.57 169.355 L 296.774 169.355 L 313.978 169.355 L 331.183 169.355 L 348.387 169.355 L 365.591 169.355 L 382.796 169.355 L 400 169.355 L 417.204 169.355 L 434.409 169.355 L 451.613 169.355 L 468.817 169.355 L 486.022 169.355 L 503.226 169.355 L 520.43 169.355 L 537.634 169.355 L 554.839 169.355 L 572.043 169.355 L 589.247 169.355 L 606.452 169.355 L 623.656 169.355 L 640.86 169.355 L 658.065 169.355"/> </g>
<g stroke="#000000" stroke-dasharray="" stroke-dashoffset="0" stroke-width="1.11803"><path d=" M 400 98.7097 L 400 88.7097 L 417.204 88.7097 L 434.409 88.7097 L 451.613 88.7097 L 468.817 88.7097 L 486.022 88.7097 L 503.226 88.7097 L 520.43 88.7097 L 537.634 88.7097 L 554.839 88.7097 L 572.043 88.7097 L 589.247 88.7097 L 606.452 88.7097 L 623.656 88.7097 L 640.86 88.7097 L 658.065 88.7097 L 648.065 88.7097 L 658.065 88.7097 L 658.065 99.4624 L 658.065 110.215 L 658.065 120.968 L 658.065 131.72 L 658.065 142.473 L 658.065 153.226 L 658.065 163.978 L 658.065 174.731 L 658.065 185.484 L 658.065 196.237 L 658.065 206.989 L 658.065 217.742 L 658.065 228.495 L 658.065 239.247 L 658.065 250 L 658.065 260.753 L 658.065 271.505 L 658.065 282.258 L 658.065 293.011 L 658.065 303.763 L 658.065 314.516 L 658.065 325.269 L 658.065 336.021 L 658.065 346.774 L 658.065 357.527 L 658.065 368.28 L 658.065 379.032 L 658.065 389.785 L 658.065 400.538 L 658.065 411.29 L 658.065 401.29 L 658.065 411.29 L 640.86 411.29 L 623.656 411.29 L 606.452 411.29 L 589.247 411.29 L 572.043 411.29 L 554.839 411.29 L 537.634 411.29 L 520.43 411.29 L 503.226 411.29 L 486.022 411.29 L 468.817 411.29 L 451.613 411.29 L 434.409 411.29 L 417.204 411.29 L 400 411.29 L 382.796 411.29 L 365.591 411.29 L 348.387 411.29 L 331.183 411.29 L 313.978 411.29 L 296.774 411.29 L 279.57 411.29 L 262.366 411.29 L 245.161 411.29 L 227.957 411.29 L 210.753 411.29 L 193.548 411.29 L 176.344 411.29 L 159.14 411.29 L 141.935 411.29 L 151.935 411.29 L 141.935 411.29 L 141.935 401.29 L 141.935 411.29 L 159.14 411.29 L 176.344 411.29 L 193.548 411.29 L 210.753 411.29 L 227.957 411.29 L 245.161 411.29 L 262.366 411.29 L 279.57 411.29 L 296.774 411.29 L 313.978 411.29 L 331.183 411.29 L 348.387 411.29 L 365.591 411.29 L 382.796 411.29 L 400 411.29 L 417.204 411.29 L 434.409 411.29 L 451.613 411.29 L 468.817 411.29 L 486.022 411.29 L 503.226 411.29 L 520.43 411.29 L 537.634 411.29 L 554.839 411.29 L 572.043 411.29 L 589.247 411.29 L 606.452 411.29 L 623.656 411.29 L 640.86 411.29 L 658.065 411.29 L 648.065 411.29 L 658.065 411.29 L 658.065 404.219"/> </g>
<g stroke="#000000" stroke-dasharray="" stroke-dashoffset="10.8704" stroke-width="1.11803"><path d=" M 270.968 401.29 L 270.968 411.29 L 270.968 401.29"/> </g>
<g stroke="#000000" stroke-dasharray="" stroke-dashoffset="17.537" stroke-width="1.11803"><path d=" M 400 401.29 L 400 411.29 L 400 401.29"/> </g>
<g stroke="#000000" stroke-dasharray="" stroke-dashoffset="6.31514" stroke-width="1.11803"><path d=" M 529.032 401.29 L 529.032 411.29 L 529.032 401.29"/> </g>
<g stroke="#000000" stroke-dasharray="" stroke-dashoffset="14.761" stroke-width="1.11803"><path d=" M 400 88.7097 L 382.796 88.7097 L 365.591 88.7097 L 348.387 88.7097 L 331.183 88.7097 L 313.978 88.7097 L 296.774 88.7097 L 279.57 88.7097 L 262.366 88.7097 L 245.161 88.7097 L 227.957 88.7097 L 210.753 88.7097 L 193.548 88.7097 L 176.344 88.7097 L 159.14 88.7097 L 141.935 88.7097 L 151.935 88.7097 L 141.935 88.7097 L 141.935 99.4624 L 141.935 110.215 L 141.935 120.968 L 141.935 131.72 L 141.935 142.473 L 141.935 153.226 L 141.935 163.978 L 141.935 174.731 L 141.935 185.484 L 141.935 196.237 L 141.935 206.989 L 141.935 217.742 L 141.935 228.495 L 141.935 239.247 L 141.935 250 L 141.935 260.753 L 141.935 271.505 L 141.935 282.258 L 141.935 293.011 L 141.935 303.763 L 141.935 314.516 L 141.935 325.269 L 141.935 336.021 L 141.935 346.774 L 141.935 357.527 L 141.935 368.28 L 141.935 379.032 L 141.935 389.785 L 141.935 400.538 L 141.935 411.29 L 149.007 411.29 L 141.935 411.29 L 151.935 411.29 L 141.935 411.29 L 141.935 401.29 L 141.935 411.29 L 141.935 400.538 L 141.935 389.785 L 141.935 379.032 L 141.935 368.28 L 141.935 357.527 L 141.935 346.774 L 141.935 336.021 L 141.935 325.269 L 141.935 314.516 L 141.935 303.763 L 141.935 293.011 L 141.935 282.258 L 141.935 271.505 L 141.935 260.753 L 141.935 250 L 141.935 239.247 L 141.935 228.495 L 141.935 217.742 L 141.935 206.989 L 141.935 196.237 L 141.935 185.484 L 141.935 174.731 L 141.935 163.978 L 141.935 153.226 L 141.935 142.473 L 141.935 131.72 L 141.935 120.968 L 141.935 110.215 L 141.935 99.4624 L 141.935 88.7097 L 141.935 98.7097 L 141.935 88.7097 L 151.935 88.7097"/> </g>
<g stroke="#000000" stroke-dasharray="" stroke-dashoffset="3.93032" stroke-width="1.11803"><path d=" M 151.935 330.645 L 141.935 330.645 L 151.935 330.645"/> </g>
<g stroke="#000000" stroke-dasharray="" stroke-dashoffset="10.597" stroke-width="1.11803"><path d=" M 151.935 250 L 141.935 250 L 151.935 250"/> </g>
<g stroke="#000000" stroke-dasharray="" stroke-dashoffset="17.2637" stroke-width="1.11803"><path d=" M 151.935 169.355 L 141.935 169.355 L 151.935 169.355"/> </g>
<g stroke="#000000" stroke-dasharray="" stroke-dashoffset="14.1758" stroke-width="1.11803"><path d=" M 658.065 98.7097 L 658.065 88.7097 L 658.065 98.7097"/> </g>
<g stroke="#000000" stroke-dasharray="" stroke-dashoffset="0.217561" stroke-width="1.11803"><path d=" M 270.968 88.7097 L 270.968 98.7097"/> </g>
<g stroke="#000000" stroke-dasharray="" stroke-dashoffset="13.5509" stroke-width="1.11803"><path d=" M 529.032 88.7097 L 529.032 98.7097"/> </g>
<g stroke="#000000" stroke-dasharray="" stroke-dashoffset="16.0536" stroke-width="1.11803"><path d=" M 658.065 330.645 L 648.065 330.645"/> </g>
<g stroke="#000000" stroke-dasharray="" stroke-dashoffset="4.8317" stroke-width="1.11803"><path d=" M 658.065 250 L 648.065 250"/> </g>
<g stroke="#000000" stroke-dasharray="" stroke-dashoffset="11.4984" stroke-width="1.11803"><path d=" M 658.065 169.355 L 648.065 169.355"/> </g>
<g stroke="#000000" stroke-dasharray="" stroke-dashoffset="2.05565" stroke-width="1.11803"><path d=" M 658.065 411.29 L 658.065 401.29"/> </g>
<g stroke="#000000" stroke-dasharray="" stroke-dashoffset="16.8166" stroke-width="1.11803"><path d=" M 141.935 404.219 L 141.935 411.29 L 141.935 404.219"/> </g>
<g stroke="#000000" stroke-dasharray="" stroke-dashoffset="3.64212" stroke-width="1.11803"><path d=" M 167.742 411.29 L 167.742 404.219"/> </g>
<g stroke="#000000" stroke-dasharray="" stroke-dashoffset="8.35617" stroke-width="1.11803"><path d=" M 193.548 411.29 L 193.548 404.219"/> </g>
<g stroke="#000000" stroke-dasharray="" stroke-dashoffset="13.0702" stroke-width="1.11803"><path d=" M 219.355 411.29 L 219.355 404.219"/> </g>
<g stroke="#000000" stroke-dasharray="" stroke-dashoffset="17.7843" stroke-width="1.11803"><path d=" M 245.161 411.29 L 245.161 404.219"/> </g>
<g stroke="#000000" stroke-dasharray="" stroke-dashoffset="4.60976" stroke-width="1.11803"><path d=" M 270.968 411.29 L 270.968 404.219"/> </g>
<g stroke="#000000" stroke-dasharray="" stroke-dashoffset="9.3238" stroke-width="1.11803"><path d=" M 296.774 411.29 L 296.774 404.219"/> </g>
<g stroke="#000000" stroke-dasharray="" stroke-dashoffset="14.0378" stroke-width="1.11803"><path d=" M 322.581 411.29 L 322.581 404.219"/> </g>
<g stroke="#000000" stroke-dasharray="" stroke-dashoffset="0.86335" stroke-width="1.11803"><path d=" M 348.387 411.29 L 348.387 404.219"/> </g>
<g stroke="#000000" stroke-dasharray="" stroke-dashoffset="5.57739" stroke-width="1.11803"><path d=" M 374.194 411.29 L 374.194 404.219"/> </g>
<g stroke="#000000" stroke-dasharray="" stroke-dashoffset="10.2914" stroke-width="1.11803"><path d=" M 400 411.29 L 400 404.219"/> </g>
<g stroke="#000000" stroke-dasharray="" stroke-dashoffset="15.0055" stroke-width="1.11803"><path d=" M 425.806 411.29 L 425.806 404.219"/> </g>
<g stroke="#000000" stroke-dasharray="" stroke-dashoffset="1.83099" stroke-width="1.11803"><path d=" M 451.613 411.29 L 451.613 404.219"/> </g>
<g stroke="#000000" stroke-dasharray="" stroke-dashoffset="6.54503" stroke-width="1.11803"><path d=" M 477.419 411.29 L 477.419 404.219"/> </g>
<g stroke="#000000" stroke-dasharray="" stroke-dashoffset="11.2591" stroke-width="1.11803"><path d=" M 503.226 411.29 L 503.226 404.219"/> </g>
<g stroke="#000000" stroke-dasharray="" stroke-dashoffset="15.9731" stroke-width="1.11803"><path d=" M 529.032 411.29 L 529.032 404.219"/> </g>
<g stroke="#000000" stroke-dasharray="" stroke-dashoffset="2.79862" stroke-width="1.11803"><path d=" M 554.839 411.29 L 554.839 404.219"/> </g>
<g stroke="#000000" stroke-dasharray="" stroke-dashoffset="7.51267" stroke-width="1.11803"><path d=" M 580.645 411.29 L 580.645 404.219"/> </g>
<g stroke="#000000" stroke-dasharray="" stroke-dashoffset="12.2267" stroke-width="1.11803"><path d=" M 606.452 411.29 L 606.452 404.219"/> </g>
<g stroke="#000000" stroke-dasharray="" stroke-dashoffset="16.9408" stroke-width="1.11803"><path d=" M 632.258 411.29 L 632.258 404.219"/> </g>
<g stroke="#000000" stroke-dasharray="" stroke-dashoffset="7.47012" stroke-width="1.11803"><path d=" M 141.935 395.161 L 149.007 395.161"/> </g>
<g stroke="#000000" stroke-dasharray="" stroke-dashoffset="12.1842" stroke-width="1.11803"><path d=" M 141.935 379.032 L 149.007 379.032"/> </g>
<g stroke="#000000" stroke-dasharray="" stroke-dashoffset="16.8982" stroke-width="1.11803"><path d=" M 141.935 362.903 L 149.007 362.903"/> </g>
<g stroke="#000000" stroke-dasharray="" stroke-dashoffset="3.7237" stroke-width="1.11803"><path d=" M 141.935 346.774 L 149.007 346.774"/> </g>
<g stroke="#000000" stroke-dasharray="" stroke-dashoffset="8.43774" stroke-width="1.11803"><path d=" M 141.935 330.645 L 149.007 330.645"/> </g>
<g stroke="#000000" stroke-dasharray="" stroke-dashoffset="13.1518" stroke-width="1.11803"><path d=" M 141.935 314.516 L 149.007 314.516"/> </g>
<g stroke="#000000" stroke-dasharray="" stroke-dashoffset="17.8658" stroke-width="1.11803"><path d=" M 141.935 298.387 L 149.007 298.387"/> </g>
<g stroke="#000000" stroke-dasharray="" stroke-dashoffset="4.69132" stroke-width="1.11803"><path d=" M 141.935 282.258 L 149.007 282.258"/> </g>
<g stroke="#000000" stroke-dasharray="" stroke-dashoffset="9.40536" stroke-width="1.11803"><path d=" M 141.935 266.129 L 149.007 266.129"/> </g>
<g stroke="#000000" stroke-dasharray="" stroke-dashoffset="14.1194" stroke-width="1.11803"><path d=" M 141.935 250 L 149.007 250"/> </g>
<g stroke="#000000" stroke-dasharray="" stroke-dashoffset="0.944893" stroke-width="1.11803"><path d=" M 141.935 233.871 L 149.007 233.871"/> </g>
<g stroke="#000000" stroke-dasharray="" stroke-dashoffset="5.65893" stroke-width="1.11803"><path d=" M 141.935 217.742 L 149.007 217.742"/> </g>
<g stroke="#000000" stroke-dasharray="" stroke-dashoffset="10.373" stroke-width="1.11803"><path d=" M 141.935 201.613 L 149.007 201.613"/> </g>
<g stroke="#000000" stroke-dasharray="" stroke-dashoffset="15.087" stroke-width="1.11803"><path d=" M 141.935 185.484 L 149.007 185.484"/> </g>
<g stroke="#000000" stroke-dasharray="" stroke-dashoffset="1.91251" stroke-width="1.11803"><path d=" M 141.935 169.355 L 149.007 169.355"/> </g>
<g stroke="#000000" stroke-dasharray="" stroke-dashoffset="6.62655" stroke-width="1.11803"><path d=" M 141.935 153.226 L 149.007 153.226"/> </g>
<g stroke="#000000" stroke-dasharray="" stroke-dashoffset="11.3406" stroke-width="1.11803"><path d=" M 141.935 137.097 L 149.007 137.097"/> </g>
<g stroke="#000000" stroke-dasharray="" stroke-dashoffset="16.0546" stroke-width="1.11803"><path d=" M 141.935 120.968 L 149.007 120.968"/> </g>
<g stroke="#000000" stroke-dasharray="" stroke-dashoffset="2.88013" stroke-width="1.11803"><path d=" M 141.935 104.839 L 149.007 104.839"/> </g>
<g stroke="#000000" stroke-dasharray="" stroke-dashoffset="7.59417" stroke-width="1.11803"><path d=" M 141.935 88.7097 L 149.007 88.7097"/> </g>
<g transform="translate(400,474.29) scale(0.0695,-0.0695) rotate(0)" fill="#000000"><use x="-125" y="-0" xlink:href="#nn_0000"/></g>
<g transform="translate(141.935,437.06) scale(0.0496,-0.0496) rotate(0)" fill="#000000"><use x="-296" y="-0" xlink:href="#nn_0002"/></g>
<g transform="translate(141.935,437.06) scale(0.0496,-0.0496) rotate(0)" fill="#000000"><use x="46" y="-0" xlink:href="#nn_0003"/></g>
<g transform="translate(270.968,437.06) scale(0.0496,-0.0496) rotate(0)" fill="#000000"><use x="-483.5" y="-0" xlink:href="#nn_0002"/></g>
<g transform="translate(270.968,437.06) scale(0.0496,-0.0496) rotate(0)" fill="#000000"><use x="-141.5" y="-0" xlink:href="#nn_0004"/></g>
<g transform="translate(270.968,437.06) scale(0.0496,-0.0496) rotate(0)" fill="#000000"><use x="108.5" y="-0" xlink:href="#nn_0005"/></g>
<g transform="translate(270.968,437.06) scale(0.0496,-0.0496) rotate(0)" fill="#000000"><use x="233.5" y="-0" xlink:href="#nn_0006"/></g>
<g transform="translate(400,437.06) scale(0.0496,-0.0496) rotate(0)" fill="#000000"><use x="-125" y="-0" xlink:href="#nn_0004"/></g>
<g transform="translate(529.032,437.06) scale(0.0496,-0.0496) rotate(0)" fill="#000000"><use x="-312.5" y="-0" xlink:href="#nn_0004"/></g>
<g transform="translate(529.032,437.06) scale(0.0496,-0.0496) rotate(0)" fill="#000000"><use x="-62.5" y="-0" xlink:href="#nn_0005"/></g>
<g transform="translate(529.032,437.06) scale(0.0496,-0.0496) rotate(0)" fill="#000000"><use x="62.5" y="-0" xlink:href="#nn_0006"/></g>
<g transform="translate(658.065,437.06) scale(0.0496,-0.0496) rotate(0)" fill="#000000"><use x="-125" y="-0" xlink:href="#nn_0003"/></g>
<g transform="translate(103.705,250) scale(0.0695,-0.0695) rotate(90)" fill="#000000"><use x="-125" y="-0" xlink:href="#nn_0001"/></g>
<g transform="translate(133.859,411.29) scale(0.0496,-0.0496) rotate(90)" fill="#000000"><use x="-296" y="-0" xlink:href="#nn_0002"/></g>
<g transform="translate(133.859,411.29) scale(0.0496,-0.0496) rotate(90)" fill="#000000"><use x="46" y="-0" xlink:href="#nn_0003"/></g>
<g transform="translate(133.859,330.645) scale(0.0496,-0.0496) rotate(90)" fill="#000000"><use x="-483.5" y="-0" xlink:href="#nn_0002"/></g>
<g transform="translate(133.859,330.645) scale(0.0496,-0.0496) rotate(90)" fill="#000000"><use x="-141.5" y="-0" xlink:href="#nn_0004"/></g>
<g transform="translate(133.859,330.645) scale(0.0496,-0.0496) rotate(90)" fill="#000000"><use x="108.5" y="-0" xlink:href="#nn_0005"/></g>
<g transform="translate(133.859,330.645) scale(0.0496,-0.0496) rotate(90)" fill="#000000"><use x="233.5" y="-0" xlink:href="#nn_0006"/></g>
<g transform="translate(133.859,250) scale(0.0496,-0.0496) rotate(90)" fill="#000000"><use x="-125" y="-0" xlink:href="#nn_0004"/></g>
<g transform="translate(133.859,169.355) scale(0.0496,-0.0496) rotate(90)" fill="#000000"><use x="-312.5" y="-0" xlink:href="#nn_0004"/></g>
<g transform="translate(133.859,169.355) scale(0.0496,-0.0496) rotate(90)" fill="#000000"><use x="-62.5" y="-0" xlink:href="#nn_0005"/></g>
<g transform="translate(133.859,169.355) scale(0.0496,-0.0496) rotate(90)" fill="#000000"><use x="62.5" y="-0" xlink:href="#nn_0006"/></g>
<g transform="translate(133.859,88.7097) scale(0.0496,-0.0496) rotate(90)" fill="#000000"><use x="-125" y="-0" xlink:href="#nn_0003"/></g>
<g stroke="#0000ff" stroke-dasharray="" stroke-dashoffset="4.59175" stroke-width="1.11803"><path d=" M 141.935 250 L 144.529 233.747 L 147.123 217.753 L 149.716 202.273 L 152.31 187.553 L 154.904 173.828 L 157.497 161.316 L 160.091 150.216 L 162.684 140.707 L 165.278 132.938 L 167.872 127.034 L 170.465 123.088 L 173.059 121.165 L 175.652 121.293 L 178.246 123.472 L 180.84 127.666 L 183.433 133.809 L 186.027 141.803 L 188.621 151.52 L 191.214 162.806 L 193.808 175.481 L 196.401 189.343 L 198.995 204.171 L 201.589 219.729 L 204.182 235.77 L 206.776 252.037 L 209.369 268.272 L 211.963 284.215 L 214.557 299.614 L 217.15 314.222 L 219.744 327.807 L 222.337 340.153 L 224.931 351.063 L 227.525 360.363 L 230.118 367.904 L 232.712 373.568 L 235.306 377.264 L 237.899 378.932 L 240.493 378.546 L 243.086 376.113 L 245.68 371.671 L 248.274 365.29 L 250.867 357.074 L 253.461 347.151 L 256.054 335.681 L 258.648 322.847 L 261.242 308.852 L 263.835 293.919 L 266.429 278.287 L 269.023 262.204 L 271.616 245.927 L 274.21 229.714 L 276.803 213.825 L 279.397 198.512 L 281.991 184.019 L 284.584 170.578 L 287.178 158.401 L 289.771 147.684 L 292.365 138.596 L 294.959 131.283 L 297.552 125.861 L 300.146 122.416 L 302.74 121.004 L 305.333 121.646 L 307.927 124.334 L 310.52 129.023 L 313.114 135.639 L 315.708 144.076 L 318.301 154.201 L 320.895 165.852 L 323.488 178.844 L 326.082 192.969 L 328.676 208.002 L 331.269 223.704 L 333.863 239.825 L 336.456 256.109 L 339.05 272.295 L 341.644 288.126 L 344.237 303.349 L 346.831 317.723 L 349.425 331.018 L 352.018 343.022 L 354.612 353.545 L 357.205 362.418 L 359.799 369.501 L 362.393 374.679 L 364.986 377.872 L 367.58 379.028 L 370.173 378.129 L 372.767 375.188 L 375.361 370.254 L 377.954 363.404 L 380.548 354.747 L 383.142 344.422 L 385.735 332.593 L 388.329 319.448 L 390.922 305.197 L 393.516 290.067 L 396.11 274.298 L 398.703 258.143 L 401.297 241.857 L 403.89 225.702 L 406.484 209.933 L 409.078 194.803 L 411.671 180.552 L 414.265 167.407 L 416.858 155.578 L 419.452 145.253 L 422.046 136.596 L 424.639 129.746 L 427.233 124.812 L 429.827 121.871 L 432.42 120.972 L 435.014 122.128 L 437.607 125.321 L 440.201 130.5 L 442.795 137.582 L 445.388 146.455 L 447.982 156.978 L 450.575 168.982 L 453.169 182.277 L 455.763 196.651 L 458.356 211.874 L 460.95 227.705 L 463.544 243.891 L 466.137 260.175 L 468.731 276.296 L 471.324 291.998 L 473.918 307.031 L 476.512 321.156 L 479.105 334.148 L 481.699 345.799 L 484.292 355.924 L 486.886 364.361 L 489.48 370.977 L 492.073 375.666 L 494.667 378.354 L 497.26 378.996 L 499.854 377.584 L 502.448 374.139 L 505.041 368.717 L 507.635 361.404 L 510.229 352.316 L 512.822 341.599 L 515.416 329.422 L 518.009 315.981 L 520.603 301.488 L 523.197 286.175 L 525.79 270.286 L 528.384 254.073 L 530.977 237.796 L 533.571 221.713 L 536.165 206.081 L 538.758 191.148 L 541.352 177.153 L 543.946 164.319 L 546.539 152.849 L 549.133 142.926 L 551.726 134.71 L 554.32 128.329 L 556.914 123.887 L 559.507 121.454 L 562.101 121.068 L 564.694 122.736 L 567.288 126.432 L 569.882 132.096 L 572.475 139.637 L 575.069 148.937 L 577.662 159.847 L 580.256 172.193 L 582.85 185.778 L 585.443 200.386 L 588.037 215.785 L 590.631 231.728 L 593.224 247.963 L 595.818 264.23 L 598.411 280.271 L 601.005 295.829 L 603.599 310.657 L 606.192 324.519 L 608.786 337.194 L 611.379 348.48 L 613.973 358.197 L 616.567 366.191 L 619.16 372.334 L 621.754 376.528 L 624.348 378.707 L 626.941 378.835 L 629.535 376.912 L 632.128 372.966 L 634.722 367.062 L 637.316 359.293 L 639.909 349.784 L 642.503 338.684 L 645.096 326.172 L 647.69 312.447 L 650.284 297.727 L 652.877 282.247 L 655.471 266.253 L 658.065 250"/> </g>
<g stroke="#000000" stroke-dasharray="" stroke-dashoffset="3.64212" stroke-width="1.11803"><path d=" M 141.935 404.219 L 141.935 411.29 L 141.935 411.29 L 141.935 411.29 L 141.935 411.29 L 141.935 411.29 L 141.935 411.29 L 141.935 411.29 L 149.007 411.29 L 141.935 411.29 L 141.935 404.219 L 141.935 411.29 L 141.935 411.29 L 141.935 411.29 L 149.007 411.29 L 141.935 411.29 L 141.935 404.219 L 141.935 411.29 L 141.935 411.29 L 141.935 411.29 L 141.935 411.29 L 141.935 411.29 L 141.935 411.29 L 141.935 411.29 L 141.935 411.29 L 141.935 411.29 L 141.935 411.29 L 141.935 411.29 L 149.007 411.29"/> </g>
<g stroke="#000000" stroke-dasharray="" stroke-dashoffset="8.35617" stroke-width="1.11803"><path d=" M 167.742 411.29 L 167.742 411.29"/> </g>
<g stroke="#000000" stroke-dasharray="" stroke-dashoffset="13.0702" stroke-width="1.11803"><path d=" M 193.548 411.29 L 193.548 411.29"/> </g>
<g stroke="#000000" stroke-dasharray="" stroke-dashoffset="17.7843" stroke-width="1.11803"><path d=" M 219.355 411.29 L 219.355 411.29"/> </g>
<g stroke="#000000" stroke-dasharray="" stroke-dashoffset="4.60976" stroke-width="1.11803"><path d=" M 245.161 411.29 L 245.161 411.29"/> </g>
<g stroke="#000000" stroke-dasharray="" stroke-dashoffset="9.3238" stroke-width="1.11803"><path d=" M 270.968 411.29 L 270.968 411.29 L 270.968 411.29 L 270.968 411.29"/> </g>
<g stroke="#000000" stroke-dasharray="" stroke-dashoffset="14.0378" stroke-width="1.11803"><path d=" M 296.774 411.29 L 296.774 411.29"/> </g>
<g stroke="#000000" stroke-dasharray="" stroke-dashoffset="0.86335" stroke-width="1.11803"><path d=" M 322.581 411.29 L 322.581 411.29"/> </g>
<g stroke="#000000" stroke-dasharray="" stroke-dashoffset="5.57739" stroke-width="1.11803"><path d=" M 348.387 411.29 L 348.387 411.29"/> </g>
<g stroke="#000000" stroke-dasharray="" stroke-dashoffset="10.2914" stroke-width="1.11803"><path d=" M 374.194 411.29 L 374.194 411.29"/> </g>
<g stroke="#000000" stroke-dasharray="" stroke-dashoffset="15.0055" stroke-width="1.11803"><path d=" M 400 411.29 L 400 411.29 L 400 411.29 L 400 411.29"/> </g>
<g stroke="#000000" stroke-dasharray="" stroke-dashoffset="1.83099" stroke-width="1.11803"><path d=" M 425.806 411.29 L 425.806 411.29"/> </g>
<g stroke="#000000" stroke-dasharray="" stroke-dashoffset="6.54503" stroke-width="1.11803"><path d=" M 451.613 411.29 L 451.613 411.29"/> </g>
<g stroke="#000000" stroke-dasharray="" stroke-dashoffset="11.2591" stroke-width="1.11803"><path d=" M 477.419 411.29 L 477.419 411.29"/> </g>
<g stroke="#000000" stroke-dasharray="" stroke-dashoffset="15.9731" stroke-width="1.11803"><path d=" M 503.226 411.29 L 503.226 411.29"/> </g>
<g stroke="#000000" stroke-dasharray="" stroke-dashoffset="2.79862" stroke-width="1.11803"><path d=" M 529.032 411.29 L 529.032 411.29 L 529.032 411.29 L 529.032 411.29"/> </g>
<g stroke="#000000" stroke-dasharray="" stroke-dashoffset="7.51267" stroke-width="1.11803"><path d=" M 554.839 411.29 L 554.839 411.29"/> </g>
<g stroke="#000000" stroke-dasharray="" stroke-dashoffset="12.2267" stroke-width="1.11803"><path d=" M 580.645 411.29 L 580.645 411.29"/> </g>
<g stroke="#000000" stroke-dasharray="" stroke-dashoffset="16.9408" stroke-width="1.11803"><path d=" M 606.452 411.29 L 606.452 411.29"/> </g>
<g stroke="#000000" stroke-dasharray="" stroke-dashoffset="3.76626" stroke-width="1.11803"><path d=" M 632.258 411.29 L 632.258 411.29"/> </g>
<g stroke="#000000" stroke-dasharray="" stroke-dashoffset="8.48031" stroke-width="1.11803"><path d=" M 658.065 401.29 L 658.065 411.29 L 658.065 411.29 L 658.065 411.29 L 658.065 411.29 L 658.065 411.29 L 658.065 411.29 L 658.065 411.29 L 658.065 411.29 L 658.065 411.29 L 658.065 411.29 L 658.065 411.29 L 658.065 411.29 L 658.065 411.29 L 648.065 411.29"/> </g>
<g stroke="#000000" stroke-dasharray="" stroke-dashoffset="12.1842" stroke-width="1.11803"><path d=" M 141.935 395.161 L 141.935 395.161"/> </g>
<g stroke="#000000" stroke-dasharray="" stroke-dashoffset="16.8982" stroke-width="1.11803"><path d=" M 141.935 379.032 L 141.935 379.032"/> </g>
<g stroke="#000000" stroke-dasharray="" stroke-dashoffset="3.7237" stroke-width="1.11803"><path d=" M 141.935 362.903 L 141.935 362.903"/> </g>
<g stroke="#000000" stroke-dasharray="" stroke-dashoffset="8.43774" stroke-width="1.11803"><path d=" M 141.935 346.774 L 141.935 346.774"/> </g>
<g stroke="#000000" stroke-dasharray="" stroke-dashoffset="13.1518" stroke-width="1.11803"><path d=" M 141.935 330.645 L 141.935 330.645 L 141.935 330.645 L 141.935 330.645"/> </g>
<g stroke="#000000" stroke-dasharray="" stroke-dashoffset="17.8658" stroke-width="1.11803"><path d=" M 141.935 314.516 L 141.935 314.516"/> </g>
<g stroke="#000000" stroke-dasharray="" stroke-dashoffset="4.69132" stroke-width="1.11803"><path d=" M 141.935 298.387 L 141.935 298.387"/> </g>
<g stroke="#000000" stroke-dasharray="" stroke-dashoffset="9.40536" stroke-width="1.11803"><path d=" M 141.935 282.258 L 141.935 282.258"/> </g>
<g stroke="#000000" stroke-dasharray="" stroke-dashoffset="14.1194" stroke-width="1.11803"><path d=" M 141.935 266.129 L 141.935 266.129"/> </g>
<g stroke="#000000" stroke-dasharray="" stroke-dashoffset="0.944893" stroke-width="1.11803"><path d=" M 141.935 250 L 141.935 250 L 141.935 250 L 141.935 250"/> </g>
<g stroke="#000000" stroke-dasharray="" stroke-dashoffset="5.65893" stroke-width="1.11803"><path d=" M 141.935 233.871 L 141.935 233.871"/> </g>
<g stroke="#000000" stroke-dasharray="" stroke-dashoffset="10.373" stroke-width="1.11803"><path d=" M 141.935 217.742 L 141.935 217.742"/> </g>
<g stroke="#000000" stroke-dasharray="" stroke-dashoffset="15.087" stroke-width="1.11803"><path d=" M 141.935 201.613 L 141.935 201.613"/> </g>
<g stroke="#000000" stroke-dasharray="" stroke-dashoffset="1.91251" stroke-width="1.11803"><path d=" M 141.935 185.484 L 141.935 185.484"/> </g>
<g stroke="#000000" stroke-dasharray="" stroke-dashoffset="6.62655" stroke-width="1.11803"><path d=" M 141.935 169.355 L 141.935 169.355 L 141.935 169.355 L 141.935 169.355"/> </g>
<g stroke="#000000" stroke-dasharray="" stroke-dashoffset="11.3406" stroke-width="1.11803"><path d=" M 141.935 153.226 L 141.935 153.226"/> </g>
<g stroke="#000000" stroke-dasharray="" stroke-dashoffset="16.0546" stroke-width="1.11803"><path d=" M 141.935 137.097 L 141.935 137.097"/> </g>
<g stroke="#000000" stroke-dasharray="" stroke-dashoffset="2.88013" stroke-width="1.11803"><path d=" M 141.935 120.968 L 141.935 120.968"/> </g>
<g stroke="#000000" stroke-dasharray="" stroke-dashoffset="7.59417" stroke-width="1.11803"><path d=" M 141.935 104.839 L 141.935 104.839"/> </g>
<g stroke="#000000" stroke-dasharray="" stroke-dashoffset="12.3082" stroke-width="1.11803"><path d=" M 141.935 98.7097 L 141.935 88.7097 L 141.935 88.7097 L 141.935 88.7097 L 141.935 88.7097 L 141.935 88.7097 L 141.935 88.7097 L 141.935 88.7097 L 141.935 88.7097 L 141.935 88.7097 L 141.935 88.7097 L 141.935 88.7097 L 141.935 88.7097 L 141.935 88.7097 L 151.935 88.7097"/> </g>
<g stroke="#000000" stroke-dasharray="" stroke-dashoffset="6.88423" stroke-width="1.11803"><path d=" M 270.968 88.7097 L 270.968 88.7097"/> </g>
<g stroke="#000000" stroke-dasharray="" stroke-dashoffset="13.5509" stroke-width="1.11803"><path d=" M 400 88.7097 L 400 88.7097"/> </g>
<g stroke="#000000" stroke-dasharray="" stroke-dashoffset="2.32902" stroke-width="1.11803"><path d=" M 529.032 88.7097 L 529.032 88.7097"/> </g>
<g stroke="#000000" stroke-dasharray="" stroke-dashoffset="8.99568" stroke-width="1.11803"><path d=" M 658.065 98.7097 L 658.065 88.7097 L 658.065 88.7097 L 658.065 88.7097 L 658.065 88.7097 L 658.065 88.7097 L 658.065 88.7097 L 658.065 88.7097 L 658.065 88.7097 L 658.065 88.7097 L 658.065 88.7097 L 658.065 88.7097 L 648.065 88.7097"/> </g>
<g stroke="#000000" stroke-dasharray="" stroke-dashoffset="4.8317" stroke-width="1.11803"><path d=" M 658.065 330.645 L 658.065 330.645"/> </g>
<g stroke="#000000" stroke-dasharray="" stroke-dashoffset="11.4984" stroke-width="1.11803"><path d=" M 658.065 250 L 658.065 250"/> </g>
<g stroke="#000000" stroke-dasharray="" stroke-dashoffset="0.276494" stroke-width="1.11803"><path d=" M 658.065 169.355 L 658.065 169.355"/> </g>
<g stroke="#4c4c4c" stroke-dasharray=" 8.94427,8.94427" stroke-dashoffset="12.6994" stroke-width="1.11803"><path d=" M 141.935 88.7097 L 141.935 88.7097 L 141.935 88.7097 L 141.935 88.7097 L 141.935 88.7097 L 141.935 88.7097 L 141.935 88.7097 L 141.935 88.7097 L 141.935 88.7097 L 141.935 99.4624 L 141.935 110.215 L 141.935 120.968 L 141.935 131.72 L 141.935 142.473 L 141.935 153.226 L 141.935 163.978 L 141.935 174.731 L 141.935 185.484 L 141.935 196.237 L 141.935 206.989 L 141.935 217.742 L 141.935 228.495 L 141.935 239.247 L 141.935 250 L 141.935 260.753 L 141.935 271.505 L 141.935 282.258 L 141.935 293.011 L 141.935 303.763 L 141.935 314.516 L 141.935 325.269 L 141.935 336.021 L 141.935 346.774 L 141.935 357.527 L 141.935 368.28 L 141.935 379.032 L 141.935 389.785 L 141.935 400.538 L 141.935 411.29 L 141.935 411.29 L 141.935 411.29 L 141.935 411.29 L 141.935 411.29 L 141.935 411.29 L 141.935 411.29 L 141.935 411.29 L 141.935 411.29 L 141.935 411.29 L 141.935 411.29 L 141.935 411.29 L 141.935 411.29 L 141.935 411.29 L 141.935 411.29 L 141.935 411.29 L 141.935 411.29 L 159.14 411.29 L 176.344 411.29 L 193.548 411.29 L 210.753 411.29 L 227.957 411.29 L 245.161 411.29 L 262.366 411.29 L 279.57 411.29 L 296.774 411.29 L 313.978 411.29 L 331.183 411.29 L 348.387 411.29 L 365.591 411.29 L 382.796 411.29 L 400 411.29 L 417.204 411.29 L 434.409 411.29 L 451.613 411.29 L 468.817 411.29 L 486.022 411.29 L 503.226 411.29 L 520.43 411.29 L 537.634 411.29 L 554.839 411.29 L 572.043 411.29 L 589.247 411.29 L 606.452 411.29 L 623.656 411.29 L 640.86 411.29 L 658.065 411.29 L 658.065 411.29 L 658.065 411.29 L 658.065 411.29 L 658.065 411.29 L 658.065 411.29 L 658.065 411.29 L 658.065 411.29 L 658.065 411.29"/> </g>
<g stroke="#4c4c4c" stroke-dasharray=" 8.94427,8.94427" stroke-dashoffset="13.0907" stroke-width="1.11803"><path d=" M 270.968 411.29 L 270.968 411.29 L 270.968 411.29 L 270.968 411.29 L 270.968 411.29 L 270.968 411.29 L 270.968 411.29 L 270.968 411.29 L 270.968 411.29"/> </g>
<g stroke="#4c4c4c" stroke-dasharray=" 8.94427,8.94427" stroke-dashoffset="13.4819" stroke-width="1.11803"><path d=" M 400 411.29 L 400 411.29 L 400 411.29 L 400 411.29 L 400 411.29 L 400 411.29 L 400 411.29 L 400 411.29 L 400 411.29"/> </g>
<g stroke="#4c4c4c" stroke-dasharray=" 8.94427,8.94427" stroke-dashoffset="13.8731" stroke-width="1.11803"><path d=" M 529.032 411.29 L 529.032 411.29 L 529.032 411.29 L 529.032 411.29 L 529.032 411.29 L 529.032 411.29 L 529.032 411.29 L 529.032 411.29 L 529.032 411.29"/> </g>
<g stroke="#4c4c4c" stroke-dasharray=" 8.94427,8.94427" stroke-dashoffset="4.78319" stroke-width="1.11803"><path d=" M 141.935 330.645 L 141.935 330.645 L 141.935 330.645 L 141.935 330.645 L 141.935 330.645 L 141.935 330.645 L 141.935 330.645 L 141.935 330.645 L 141.935 330.645"/> </g>
<g stroke="#4c4c4c" stroke-dasharray=" 8.94427,8.94427" stroke-dashoffset="8.98688" stroke-width="1.11803"><path d=" M 141.935 250 L 141.935 250 L 141.935 250 L 141.935 250 L 141.935 250 L 141.935 250 L 141.935 250 L 141.935 250 L 141.935 250"/> </g>
<g stroke="#4c4c4c" stroke-dasharray=" 8.94427,8.94427" stroke-dashoffset="13.1906" stroke-width="1.11803"><path d=" M 141.935 169.355 L 141.935 169.355 L 141.935 169.355 L 141.935 169.355 L 141.935 169.355 L 141.935 169.355 L 141.935 169.355 L 141.935 169.355 L 141.935 169.355"/> </g>
<g stroke="#000000" stroke-dasharray="" stroke-dashoffset="1.75993" stroke-width="1.11803"><path d=" M 141.935 411.29 L 141.935 411.29 L 151.935 411.29 L 141.935 411.29 L 141.935 401.29 L 141.935 411.29 L 141.935 411.29 L 141.935 411.29 L 141.935 411.29"/> </g>
<g stroke="#4c4c4c" stroke-dasharray=" 8.94427,8.94427" stroke-dashoffset="12.6994" stroke-width="1.11803"><path d=" M 141.935 88.7097 L 141.935 88.7097 L 141.935 88.7097 L 141.935 88.7097 L 141.935 88.7097 L 141.935 88.7097 L 141.935 88.7097 L 141.935 88.7097 L 141.935 99.4624 L 141.935 110.215 L 141.935 120.968 L 141.935 131.72 L 141.935 142.473 L 141.935 153.226 L 141.935 163.978 L 141.935 174.731 L 141.935 185.484 L 141.935 196.237 L 141.935 206.989 L 141.935 217.742 L 141.935 228.495 L 141.935 239.247 L 141.935 250 L 141.935 260.753 L 141.935 271.505 L 141.935 282.258 L 141.935 293.011 L 141.935 303.763 L 141.935 314.516 L 141.935 325.269 L 141.935 336.021 L 141.935 346.774 L 141.935 357.527 L 141.935 368.28 L 141.935 379.032 L 141.935 389.785 L 141.935 400.538 L 141.935 411.29 L 141.935 411.29 L 141.935 411.29 L 141.935 411.29 L 141.935 411.29 L 141.935 411.29 L 141.935 411.29 L 141.935 411.29 L 141.935 411.29 L 141.935 411.29 L 141.935 411.29 L 141.935 411.29 L 141.935 411.29 L 141.935 411.29 L 141.935 411.29 L 159.14 411.29 L 176.344 411.29 L 193.548 411.29 L 210.753 411.29 L 227.957 411.29 L 245.161 411.29 L 262.366 411.29 L 279.57 411.29 L 296.774 411.29 L 313.978 411.29 L 331.183 411.29 L 348.387 411.29 L 365.591 411.29 L 382.796 411.29 L 400 411.29 L 417.204 411.29 L 434.409 411.29 L 451.613 411.29 L 468.817 411.29 L 486.022 411.29 L 503.226 411.29 L 520.43 411.29 L 537.634 411.29 L 554.839 411.29 L 572.043 411.29 L 589.247 411.29 L 606.452 411.29 L 623.656 411.29 L 640.86 411.29 L 658.065 411.29 L 658.065 411.29 L 658.065 411.29 L 658.065 411.29 L 658.065 411.29 L 658.065 411.29 L 658.065 411.29 L 658.065 411.29"/> </g>
<g stroke="#4c4c4c" stroke-dasharray=" 8.94427,8.94427" stroke-dashoffset="13.0907" stroke-width="1.11803"><path d=" M 270.968 411.29 L 270.968 411.29 L 270.968 411.29 L 270.968 411.29 L 270.968 411.29 L 270.968 411.29 L 270.968 411.29 L 270.968 411.29"/> </g>
<g stroke="#4c4c4c" stroke-dasharray=" 8.94427,8.94427" stroke-dashoffset="13.4819" stroke-width="1.11803"><path d=" M 400 411.29 L 400 411.29 L 400 411.29 L 400 411.29 L 400 411.29 L 400 411.29 L 400 411.29 L 400 411.29"/> </g>
<g stroke="#4c4c4c" stroke-dasharray=" 8.94427,8.94427" stroke-dashoffset="13.8731" stroke-width="1.11803"><path d=" M 529.032 411.29 L 529.032 411.29 L 529.032 411.29 L 529.032 411.29 L 529.032 411.29 L 529.032 411.29 L 529.032 411.29 L 529.032 411.29"/> </g>
<g stroke="#4c4c4c" stroke-dasharray=" 8.94427,8.94427" stroke-dashoffset="4.78319" stroke-width="1.11803"><path d=" M 141.935 330.645 L 141.935 330.645 L 141.935 330.645 L 141.935 330.645 L 141.935 330.645 L 141.935 330.645 L 141.935 330.645 L 141.935 330.645"/> </g>
<g stroke="#4c4c4c" stroke-dasharray=" 8.94427,8.94427" stroke-dashoffset="8.98688" stroke-width="1.11803"><path d=" M 141.935 250 L 141.935 250 L 141.935 250 L 141.935 250 L 141.935 250 L 141.935 250 L 141.935 250 L 141.935 250"/> </g>
<g stroke="#4c4c4c" stroke-dasharray=" 8.94427,8.94427" stroke-dashoffset="13.1906" stroke-width="1.11803"><path d=" M 141.935 169.355 L 141.935 169.355 L 141.935 169.355 L 141.935 169.355 L 141.935 169.355 L 141.935 169.355 L 141.935 169.355 L 141.935 169.355"/> </g>
<g stroke="#000000" stroke-dasharray="" stroke-dashoffset="1.75993" stroke-width="1.11803"><path d=" M 141.935 404.219 L 141.935 411.29 L 141.935 411.29 L 141.935 411.29 L 141.935 411.29 L 141.935 411.29 L 141.935 411.29 L 141.935 411.29 L 149.007 411.29 L 141.935 411.29 L 141.935 404.219 L 141.935 411.29 L 141.935 411.29 L 141.935 411.29 L 141.935 411.29 L 141.935 411.29 L 149.007 411.29 L 141.935 411.29 L 141.935 404.219 L 141.935 411.29 L 141.935 411.29 L 141.935 411.29 L 149.007 411.29"/> </g>
<g stroke="#000000" stroke-dasharray="" stroke-dashoffset="14.1758" stroke-width="1.11803"><path d=" M 658.065 98.7097 L 658.065 88.7097 L 658.065 88.7097 L 658.065 88.7097 L 658.065 88.7097 L 658.065 88.7097 L 658.065 88.7097 L 658.065 88.7097 L 658.065 88.7097 L 648.065 88.7097"/> </g>
<g stroke="#000000" stroke-dasharray="" stroke-dashoffset="6.94316" stroke-width="1.11803"><path d=" M 141.935 98.7097 L 141.935 88.7097 L 141.935 88.7097 L 141.935 88.7097 L 141.935 88.7097 L 141.935 88.7097 L 141.935 88.7097 L 141.935 88.7097 L 141.935 88.7097 L 151.935 88.7097"/> </g>
<g stroke="#000000" stroke-dasharray="" stroke-dashoffset="2.05565" stroke-width="1.11803"><path d=" M 658.065 401.29 L 658.065 411.29 L 658.065 411.29 L 658.065 411.29 L 658.065 411.29 L 658.065 411.29 L 658.065 411.29 L 658.065 411.29 L 658.065 411.29 L 648.065 411.29"/> </g>
<g stroke="#000000" stroke-dasharray="" stroke-dashoffset="1.75993" stroke-width="1.11803"><path d=" M 141.935 411.29 L 151.935 411.29 L 141.935 411.29 L 141.935 401.29 L 141.935 411.29 L 141.935 411.29 L 141.935 411.29"/> </g>
<g stroke="#4c4c4c" stroke-dasharray=" 8.94427,8.94427" stroke-dashoffset="12.6994" stroke-width="1.11803"><path d=" M 141.935 88.7097 L 141.935 88.7097 L 141.935 88.7097 L 141.935 88.7097 L 141.935 88.7097 L 141.935 88.7097 L 141.935 88.7097 L 141.935 88.7097 L 141.935 88.7097 L 141.935 99.4624 L 141.935 110.215 L 141.935 120.968 L 141.935 131.72 L 141.935 142.473 L 141.935 153.226 L 141.935 163.978 L 141.935 174.731 L 141.935 185.484 L 141.935 196.237 L 141.935 206.989 L 141.935 217.742 L 141.935 228.495 L 141.935 239.247 L 141.935 250 L 141.935 260.753 L 141.935 271.505 L 141.935 282.258 L 141.935 293.011 L 141.935 303.763 L 141.935 314.516 L 141.935 325.269 L 141.935 336.021 L 141.935 346.774 L 141.935 357.527 L 141.935 368.28 L 141.935 379.032 L 141.935 389.785 L 141.935 400.538 L 141.935 411.29 L 141.935 411.29 L 141.935 411.29 L 141.935 411.29 L 141.935 411.29 L 141.935 411.29 L 141.935 411.29 L 141.935 411.29 L 141.935 411.29 L 141.935 411.29 L 141.935 411.29 L 141.935 411.29 L 141.935 411.29 L 141.935 411.29 L 141.935 411.29 L 141.935 411.29 L 141.935 411.29 L 159.14 411.29 L 176.344 411.29 L 193.548 411.29 L 210.753 411.29 L 227.957 411.29 L 245.161 411.29 L 262.366 411.29 L 279.57 411.29 L 296.774 411.29 L 313.978 411.29 L 331.183 411.29 L 348.387 411.29 L 365.591 411.29 L 382.796 411.29 L 400 411.29 L 417.204 411.29 L 434.409 411.29 L 451.613 411.29 L 468.817 411.29 L 486.022 411.29 L 503.226 411.29 L 520.43 411.29 L 537.634 411.29 L 554.839 411.29 L 572.043 411.29 L 589.247 411.29 L 606.452 411.29 L 623.656 411.29 L 640.86 411.29 L 658.065 411.29 L 658.065 411.29 L 658.065 411.29 L 658.065 411.29 L 658.065 411.29 L 658.065 411.29 L 658.065 411.29 L 658.065 411.29 L 658.065 411.29"/> </g>
<g stroke="#4c4c4c" stroke-dasharray=" 8.94427,8.94427" stroke-dashoffset="13.0907" stroke-width="1.11803"><path d=" M 270.968 411.29 L 270.968 411.29 L 270.968 411.29 L 270.968 411.29 L 270.968 411.29 L 270.968 411.29 L 270.968 411.29 L 270.968 411.29 L 270.968 411.29"/> </g>
<g stroke="#4c4c4c" stroke-dasharray=" 8.94427,8.94427" stroke-dashoffset="13.4819" stroke-width="1.11803"><path d=" M 400 411.29 L 400 411.29 L 400 411.29 L 400 411.29 L 400 411.29 L 400 411.29 L 400 411.29 L 400 411.29 L 400 411.29"/> </g>
<g stroke="#4c4c4c" stroke-dasharray=" 8.94427,8.94427" stroke-dashoffset="13.8731" stroke-width="1.11803"><path d=" M 529.032 411.29 L 529.032 411.29 L 529.032 411.29 L 529.032 411.29 L 529.032 411.29 L 529.032 411.29 L 529.032 411.29 L 529.032 411.29 L 529.032 411.29"/> </g>
<g stroke="#4c4c4c" stroke-dasharray=" 8.94427,8.94427" stroke-dashoffset="4.78319" stroke-width="1.11803"><path d=" M 141.935 330.645 L 141.935 330.645 L 141.935 330.645 L 141.935 330.645 L 141.935 330.645 L 141.935 330.645 L 141.935 330.645 L 141.935 330.645 L 141.935 330.645"/> </g>
<g stroke="#4c4c4c" stroke-dasharray=" 8.94427,8.94427" stroke-dashoffset="8.98688" stroke-width="1.11803"><path d=" M 141.935 250 L 141.935 250 L 141.935 250 L 141.935 250 L 141.935 250 L 141.935 250 L 141.935 250 L 141.935 250 L 141.935 250"/> </g>
<g stroke="#4c4c4c" stroke-dasharray=" 8.94427,8.94427" stroke-dashoffset="13.1906" stroke-width="1.11803"><path d=" M 141.935 169.355 L 141.935 169.355 L 141.935 169.355 L 141.935 169.355 L 141.935 169.355 L 141.935 169.355 L 141.935 169.355 L 141.935 169.355 L 141.935 169.355"/> </g>
<g stroke="#000000" stroke-dasharray="" stroke-dashoffset="1.75993" stroke-width="1.11803"><path d=" M 141.935 404.219 L 141.935 411.29 L 141.935 411.29 L 141.935 411.29 L 141.935 411.29 L 141.935 411.29 L 141.935 411.29 L 141.935 411.29 L 149.007 411.29 L 141.935 411.29 L 141.935 404.219 L 141.935 411.29 L 141.935 411.29 L 141.935 411.29 L 149.007 411.29 L 141.935 411.29 L 141.935 404.219 L 141.935 411.29 L 141.935 411.29 L 141.935 411.29 L 141.935 411.29 L 141.935 411.29 L 149.007 411.29"/> </g>
<g stroke="#000000" stroke-dasharray="" stroke-dashoffset="14.1758" stroke-width="1.11803"><path d=" M 658.065 98.7097 L 658.065 88.7097 L 658.065 88.7097 L 658.065 88.7097 L 658.065 88.7097 L 658.065 88.7097 L 658.065 88.7097 L 658.065 88.7097 L 658.065 88.7097 L 658.065 88.7097 L 648.065 88.7097"/> </g>
<g stroke="#000000" stroke-dasharray="" stroke-dashoffset="6.94316" stroke-width="1.11803"><path d=" M 141.935 98.7097 L 141.935 88.7097 L 141.935 88.7097 L 141.935 88.7097 L 141.935 88.7097 L 141.935 88.7097 L 141.935 88.7097 L 141.935 88.7097 L 141.935 88.7097 L 141.935 88.7097 L 151.935 88.7097"/> </g>
<g stroke="#000000" stroke-dasharray="" stroke-dashoffset="2.05565" stroke-width="1.11803"><path d=" M 658.065 401.29 L 658.065 411.29 L 658.065 411.29 L 658.065 411.29 L 658.065 411.29 L 658.065 411.29 L 658.065 411.29 L 658.065 411.29 L 658.065 411.29 L 658.065 411.29 L 648.065 411.29"/> </g>
<g stroke="#000000" stroke-dasharray="" stroke-dashoffset="1.75993" stroke-width="1.11803"><path d=" M 141.935 411.29 L 141.935 411.29 L 151.935 411.29 L 141.935 411.29 L 141.935 401.29 L 141.935 411.29 L 141.935 411.29 L 141.935 411.29 L 141.935 411.29"/> </g>
<g stroke="#4c4c4c" stroke-dasharray=" 8.94427,8.94427" stroke-dashoffset="12.6994" stroke-width="1.11803"><path d=" M 141.935 88.7097 L 141.935 88.7097 L 141.935 88.7097 L 141.935 88.7097 L 141.935 88.7097 L 141.935 88.7097 L 141.935 88.7097 L 141.935 88.7097 L 141.935 99.4624 L 141.935 110.215 L 141.935 120.968 L 141.935 131.72 L 141.935 142.473 L 141.935 153.226 L 141.935 163.978 L 141.935 174.731 L 141.935 185.484 L 141.935 196.237 L 141.935 206.989 L 141.935 217.742 L 141.935 228.495 L 141.935 239.247 L 141.935 250 L 141.935 260.753 L 141.935 271.505 L 141.935 282.258 L 141.935 293.011 L 141.935 303.763 L 141.935 314.516 L 141.935 325.269 L 141.935 336.021 L 141.935 346.774 L 141.935 357.527 L 141.935 368.28 L 141.935 379.032 L 141.935 389.785 L 141.935 400.538 L 141.935 411.29 L 141.935 411.29 L 141.935 411.29 L 141.935 411.29 L 141.935 411.29 L 141.935 411.29 L 141.935 411.29 L 141.935 411.29 L 141.935 411.29 L 141.935 411.29 L 141.935 411.29 L 141.935 411.29 L 141.935 411.29 L 141.935 411.29 L 141.935 411.29 L 159.14 411.29 L 176.344 411.29 L 193.548 411.29 L 210.753 411.29 L 227.957 411.29 L 245.161 411.29 L 262.366 411.29 L 279.57 411.29 L 296.774 411.29 L 313.978 411.29 L 331.183 411.29 L 348.387 411.29 L 365.591 411.29 L 382.796 411.29 L 400 411.29 L 417.204 411.29 L 434.409 411.29 L 451.613 411.29 L 468.817 411.29 L 486.022 411.29 L 503.226 411.29 L 520.43 411.29 L 537.634 411.29 L 554.839 411.29 L 572.043 411.29 L 589.247 411.29 L 606.452 411.29 L 623.656 411.29 L 640.86 411.29 L 658.065 411.29 L 658.065 411.29 L 658.065 411.29 L 658.065 411.29 L 658.065 411.29 L 658.065 411.29 L 658.065 411.29 L 658.065 411.29"/> </g>
<g stroke="#4c4c4c" stroke-dasharray=" 8.94427,8.94427" stroke-dashoffset="13.0907" stroke-width="1.11803"><path d=" M 270.968 411.29 L 270.968 411.29 L 270.968 411.29 L 270.968 411.29 L 270.968 411.29 L 270.968 411.29 L 270.968 411.29 L 270.968 411.29"/> </g>
<g stroke="#4c4c4c" stroke-dasharray=" 8.94427,8.94427" stroke-dashoffset="13.4819" stroke-width="1.11803"><path d=" M 400 411.29 L 400 411.29 L 400 411.29 L 400 411.29 L 400 411.29 L 400 411.29 L 400 411.29 L 400 411.29"/> </g>
<g stroke="#4c4c4c" stroke-dasharray=" 8.94427,8.94427" stroke-dashoffset="13.8731" stroke-width="1.11803"><path d=" M 529.032 411.29 L 529.032 411.29 L 529.032 411.29 L 529.032 411.29 L 529.032 411.29 L 529.032 411.29 L 529.032 411.29 L 529.032 411.29"/> </g>
<g stroke="#4c4c4c" stroke-dasharray=" 8.94427,8.94427" stroke-dashoffset="4.78319" stroke-width="1.11803"><path d=" M 141.935 330.645 L 141.935 330.645 L 141.935 330.645 L 141.935 330.645 L 141.935 330.645 L 141.935 330.645 L 141.935 330.645 L 141.935 330.645"/> </g>
<g stroke="#4c4c4c" stroke-dasharray=" 8.94427,8.94427" stroke-dashoffset="8.98688" stroke-width="1.11803"><path d=" M 141.935 250 L 141.935 250 L 141.935 250 L 141.935 250 L 141.935 250 L 141.935 250 L 141.935 250 L 141.935 250"/> </g>
<g stroke="#4c4c4c" stroke-dasharray=" 8.94427,8.94427" stroke-dashoffset="13.1906" stroke-width="1.11803"><path d=" M 141.935 169.355 L 141.935 169.355 L 141.935 169.355 L 141.935 169.355 L 141.935 169.355 L 141.935 169.355 L 141.935 169.355 L 141.935 169.355"/> </g>
<g stroke="#000000" stroke-dasharray="" stroke-dashoffset="1.75993" stroke-width="1.11803"><path d=" M 141.935 404.219 L 141.935 411.29 L 141.935 411.29 L 141.935 411.29 L 141.935 411.29 L 141.935 411.29 L 141.935 411.29 L 141.935 411.29 L 149.007 411.29 L 141.935 411.29 L 141.935 404.219 L 141.935 411.29 L 141.935 411.29 L 141.935 411.29 L 141.935 411.29 L 141.935 411.29 L 149.007 411.29 L 141.935 411.29 L 141.935 404.219 L 141.935 411.29 L 141.935 411.29 L 141.935 411.29 L 149.007 411.29"/> </g>
<g stroke="#000000" stroke-dasharray="" stroke-dashoffset="14.1758" stroke-width="1.11803"><path d=" M 400 98.7097 L 400 88.7097 L 417.204 88.7097 L 434.409 88.7097 L 451.613 88.7097 L 468.817 88.7097 L 486.022 88.7097 L 503.226 88.7097 L 520.43 88.7097 L 537.634 88.7097 L 554.839 88.7097 L 572.043 88.7097 L 589.247 88.7097 L 606.452 88.7097 L 623.656 88.7097 L 640.86 88.7097 L 658.065 88.7097 L 658.065 88.7097 L 658.065 88.7097 L 658.065 88.7097 L 658.065 88.7097 L 658.065 88.7097 L 658.065 88.7097 L 658.065 88.7097 L 658.065 88.7097 L 658.065 88.7097 L 658.065 98.7097 L 658.065 88.7097 L 648.065 88.7097 L 658.065 88.7097 L 658.065 99.4624 L 658.065 110.215 L 658.065 120.968 L 658.065 131.72 L 658.065 142.473 L 658.065 153.226 L 658.065 163.978 L 658.065 174.731 L 658.065 185.484 L 658.065 196.237 L 658.065 206.989 L 658.065 217.742 L 658.065 228.495 L 658.065 239.247 L 658.065 250 L 648.065 250"/> </g>
<g stroke="#000000" stroke-dasharray="" stroke-dashoffset="6.94316" stroke-width="1.11803"><path d=" M 151.935 250 L 141.935 250 L 141.935 239.247 L 141.935 228.495 L 141.935 217.742 L 141.935 206.989 L 141.935 196.237 L 141.935 185.484 L 141.935 174.731 L 141.935 163.978 L 141.935 153.226 L 141.935 142.473 L 141.935 131.72 L 141.935 120.968 L 141.935 110.215 L 141.935 99.4624 L 141.935 88.7097 L 141.935 88.7097 L 141.935 88.7097 L 141.935 88.7097 L 141.935 88.7097 L 141.935 88.7097 L 141.935 88.7097 L 141.935 88.7097 L 141.935 88.7097 L 141.935 88.7097 L 151.935 88.7097 L 141.935 88.7097 L 159.14 88.7097 L 176.344 88.7097 L 193.548 88.7097 L 210.753 88.7097 L 227.957 88.7097 L 245.161 88.7097 L 262.366 88.7097 L 279.57 88.7097 L 296.774 88.7097 L 313.978 88.7097 L 331.183 88.7097 L 348.387 88.7097 L 365.591 88.7097 L 382.796 88.7097 L 400 88.7097 L 400 88.7097"/> </g>
<g stroke="#000000" stroke-dasharray="" stroke-dashoffset="2.05565" stroke-width="1.11803"><path d=" M 400 401.29 L 400 411.29 L 417.204 411.29 L 434.409 411.29 L 451.613 411.29 L 468.817 411.29 L 486.022 411.29 L 503.226 411.29 L 520.43 411.29 L 537.634 411.29 L 554.839 411.29 L 572.043 411.29 L 589.247 411.29 L 606.452 411.29 L 623.656 411.29 L 640.86 411.29 L 658.065 411.29 L 658.065 411.29 L 658.065 411.29 L 658.065 411.29 L 658.065 411.29 L 658.065 411.29 L 658.065 411.29 L 658.065 411.29 L 658.065 411.29 L 658.065 411.29 L 658.065 401.29 L 658.065 411.29 L 648.065 411.29 L 658.065 411.29 L 658.065 400.538 L 658.065 389.785 L 658.065 379.032 L 658.065 368.28 L 658.065 357.527 L 658.065 346.774 L 658.065 336.021 L 658.065 325.269 L 658.065 314.516 L 658.065 303.763 L 658.065 293.011 L 658.065 282.258 L 658.065 271.505 L 658.065 260.753 L 658.065 250 L 658.065 250"/> </g>
<g stroke="#000000" stroke-dasharray="" stroke-dashoffset="1.75993" stroke-width="1.11803"><path d=" M 141.935 250 L 141.935 250 L 141.935 260.753 L 141.935 271.505 L 141.935 282.258 L 141.935 293.011 L 141.935 303.763 L 141.935 314.516 L 141.935 325.269 L 141.935 336.021 L 141.935 346.774 L 141.935 357.527 L 141.935 368.28 L 141.935 379.032 L 141.935 389.785 L 141.935 400.538 L 141.935 411.29 L 141.935 401.29 L 141.935 411.29 L 141.935 411.29 L 141.935 411.29 L 141.935 411.29 L 141.935 411.29 L 151.935 411.29 L 141.935 411.29 L 141.935 401.29"/> </g>
<g stroke="#000000" stroke-dasharray="" stroke-dashoffset="12.3569" stroke-width="1.11803"><path d=" M 270.968 401.29 L 270.968 411.29 L 270.968 411.29"/> </g>
<g stroke="#000000" stroke-dasharray="" stroke-dashoffset="1.13504" stroke-width="1.11803"><path d=" M 151.935 411.29 L 141.935 411.29 L 159.14 411.29 L 176.344 411.29 L 193.548 411.29 L 210.753 411.29 L 227.957 411.29 L 245.161 411.29 L 262.366 411.29 L 279.57 411.29 L 296.774 411.29 L 313.978 411.29 L 331.183 411.29 L 348.387 411.29 L 365.591 411.29 L 382.796 411.29 L 400 411.29 L 400 411.29"/> </g>
<g stroke="#000000" stroke-dasharray="" stroke-dashoffset="7.80171" stroke-width="1.11803"><path d=" M 529.032 401.29 L 529.032 411.29 L 529.032 411.29"/> </g>
<g stroke="#000000" stroke-dasharray="" stroke-dashoffset="10.3044" stroke-width="1.11803"><path d=" M 151.935 330.645 L 141.935 330.645 L 141.935 330.645"/> </g>
<g stroke="#000000" stroke-dasharray="" stroke-dashoffset="5.74919" stroke-width="1.11803"><path d=" M 151.935 169.355 L 141.935 169.355 L 141.935 169.355"/> </g>
<g stroke="#000000" stroke-dasharray="" stroke-dashoffset="12.0643" stroke-width="1.11803"><path d=" M 270.968 98.7097 L 270.968 88.7097 L 270.968 88.7097"/> </g>
<g stroke="#000000" stroke-dasharray="" stroke-dashoffset="7.50912" stroke-width="1.11803"><path d=" M 529.032 98.7097 L 529.032 88.7097 L 529.032 88.7097"/> </g>
<g stroke="#000000" stroke-dasharray="" stroke-dashoffset="5.1243" stroke-width="1.11803"><path d=" M 648.065 330.645 L 658.065 330.645 L 658.065 330.645"/> </g>
<g stroke="#000000" stroke-dasharray="" stroke-dashoffset="0.569086" stroke-width="1.11803"><path d=" M 648.065 169.355 L 658.065 169.355 L 658.065 169.355"/> </g>
<g stroke="#000000" stroke-dasharray="" stroke-dashoffset="16.6195" stroke-width="1.11803"><path d=" M 141.935 98.7097 L 141.935 88.7097 L 141.935 98.7097"/> </g>
</g></svg>