<?xml version="1.0" standalone="no"?>
<!DOCTYPE svg PUBLIC "-//W3C//DTD SVG 20000303 Stylable//EN" "http://www.w3.org/TR/2000/03/WD-SVG-20000303/DTD/svg-20000303-stylable.dtd">
<svg width="1000" height="600" xmlns="http://www.w3.org/2000/svg" xmlns:xlink="http://www.w3.org/1999/xlink">
<!--Created by MathGL library-->
<!--Title: -->
<!--CreationDate: Sat May  9 11:59:15 2015
-->

<defs><g id="nn_0000"><path d="	M 239 0 L 239 7 L 230 8 L 222 12 L 215 18 L 207 26 L 199 37 L 134 136 L 176 195 L 182 203 L 190 209 L 198 214 L 207 216 L 217 218 L 217 225 L 137 225 L 137 218 L 145 217 L 151 215 L 155 213 L 157 210 L 157 202 L 154 197 L 150 191 L 145 184 L 136 169 L 133 165 L 130 160 L 124 152 L 123 154 L 121 156 L 119 160 L 117 162 L 109 174 L 103 185 L 98 194 L 95 201 L 94 206 L 95 210 L 97 213 L 101 216 L 107 217 L 116 218 L 116 225 L 12 225 L 12 218 L 17 218 L 25 217 L 32 214 L 39 208 L 47 200 L 55 187 L 55 188 L 102 116 L 45 33 L 37 22 L 31 15 L 24 11 L 17 9 L 8 7 L 8 0 L 81 0 L 81 7 L 73 8 L 68 9 L 64 11 L 62 13 L 61 17 L 61 19 L 62 22 L 64 26 L 67 31 L 71 37 L 110 99 L 156 28 L 157 27 L 159 23 L 159 15 L 157 12 L 153 9 L 147 8 L 139 7 L 139 0 Z
"/></g></defs>
<defs><g id="nn_0002"><path d="	M 310 110 L 310 143 L 32 143 L 32 110 Z
"/></g></defs>
<defs><g id="nn_0003"><path d="	M 197 0 L 197 7 L 178 8 L 164 12 L 155 18 L 151 27 L 150 38 L 150 336 L 145 338 L 55 292 L 55 286 L 69 291 L 74 293 L 84 295 L 88 296 L 92 296 L 97 295 L 101 293 L 104 288 L 106 281 L 107 272 L 107 47 L 105 33 L 100 22 L 92 14 L 78 10 L 59 7 L 59 0 Z
"/></g></defs>
<defs><g id="nn_0004"><path d="	M 238 165 L 232 222 L 218 270 L 194 307 L 164 330 L 127 338 L 84 329 L 52 304 L 29 266 L 16 220 L 12 168 L 16 118 L 27 71 L 48 31 L 80 3 L 125 -6 L 168 2 L 200 29 L 222 67 L 234 114 L 238 165 Z
	M 190 162 L 187 108 L 179 65 L 166 33 L 148 13 L 125 6 L 102 13 L 84 33 L 71 65 L 63 109 L 60 165 L 63 220 L 71 265 L 84 298 L 101 318 L 124 325 L 148 318 L 166 298 L 179 265 L 187 219 L 190 162 Z
"/></g></defs>
<defs><g id="nn_0005"><path d="	M 90 22 L 89 30 L 85 38 L 79 44 L 71 49 L 63 50 L 54 49 L 46 45 L 40 39 L 37 31 L 35 22 L 37 13 L 40 6 L 46 0 L 54 -3 L 63 -5 L 71 -3 L 79 0 L 85 6 L 89 13 L 90 22 Z
"/></g></defs>
<defs><g id="nn_0006"><path d="	M 219 340 L 214 344 L 210 339 L 206 335 L 202 333 L 197 331 L 87 331 L 32 213 L 32 208 L 34 206 L 38 206 L 65 204 L 89 199 L 110 191 L 129 182 L 145 171 L 156 159 L 166 146 L 172 131 L 177 114 L 178 96 L 174 71 L 164 48 L 149 29 L 131 16 L 110 12 L 104 12 L 98 14 L 90 17 L 83 21 L 75 27 L 66 34 L 58 39 L 51 41 L 45 43 L 38 43 L 30 42 L 24 40 L 19 36 L 17 31 L 16 24 L 19 13 L 27 5 L 40 -1 L 58 -5 L 79 -6 L 99 -5 L 117 -2 L 134 1 L 149 8 L 164 17 L 182 33 L 196 51 L 206 71 L 211 95 L 213 122 L 213 137 L 211 150 L 207 162 L 202 174 L 195 185 L 178 205 L 159 220 L 137 232 L 108 241 L 70 249 L 90 291 L 188 291 L 192 292 L 198 294 L 200 296 L 201 298 Z
"/></g></defs>
<defs><g id="nn_0001"><path d="	M 238 225 L 171 225 L 171 218 L 179 217 L 186 216 L 190 213 L 193 210 L 194 205 L 194 202 L 193 201 L 193 198 L 192 196 L 143 59 L 88 184 L 82 196 L 81 201 L 81 204 L 82 209 L 85 212 L 90 215 L 98 217 L 109 218 L 109 225 L 7 225 L 7 218 L 14 217 L 21 214 L 26 211 L 30 206 L 33 200 L 99 60 L 105 47 L 111 35 L 116 24 L 121 9 L 119 2 L 116 -8 L 112 -21 L 106 -34 L 100 -44 L 96 -51 L 85 -62 L 80 -65 L 75 -66 L 71 -66 L 69 -65 L 66 -64 L 62 -63 L 63 -63 L 57 -60 L 52 -58 L 42 -56 L 36 -56 L 30 -57 L 24 -60 L 19 -65 L 16 -72 L 15 -79 L 17 -88 L 21 -96 L 28 -102 L 38 -106 L 50 -108 L 71 -105 L 90 -94 L 106 -76 L 122 -49 L 137 -11 L 213 192 L 217 202 L 221 208 L 226 213 L 231 216 L 238 218 Z
"/></g></defs>
<g fill="none" stroke="none" stroke-width="0.5">
<g stroke="#007f00" stroke-dasharray=" 9.79796,9.79796" stroke-dashoffset="13.0155" stroke-width="1.22474"><path d=" M 177.419 106.452 L 177.419 119.355 L 177.419 132.258 L 177.419 145.161 L 177.419 158.065 L 177.419 170.968 L 177.419 183.871 L 177.419 196.774 L 177.419 209.677 L 177.419 222.581 L 177.419 235.484 L 177.419 248.387 L 177.419 261.29 L 177.419 274.194 L 177.419 287.097 L 177.419 300 L 177.419 312.903 L 177.419 325.806 L 177.419 338.71 L 177.419 351.613 L 177.419 364.516 L 177.419 377.419 L 177.419 390.323 L 177.419 403.226 L 177.419 416.129 L 177.419 429.032 L 177.419 441.935 L 177.419 454.839 L 177.419 467.742 L 177.419 480.645 L 177.419 467.742 L 177.419 454.839 L 177.419 441.935 L 177.419 429.032 L 177.419 416.129 L 177.419 403.226 L 177.419 390.323 L 177.419 377.419 L 177.419 364.516 L 177.419 351.613 L 177.419 338.71 L 177.419 325.806 L 177.419 312.903 L 177.419 300 L 177.419 287.097 L 177.419 274.194 L 177.419 261.29 L 177.419 248.387 L 177.419 235.484 L 177.419 222.581 L 177.419 209.677 L 177.419 196.774 L 177.419 183.871 L 177.419 170.968 L 177.419 158.065 L 177.419 145.161 L 177.419 132.258 L 177.419 119.355 L 177.419 106.452 L 198.925 106.452 L 220.43 106.452 L 241.935 106.452 L 263.441 106.452 L 284.946 106.452 L 306.452 106.452 L 327.957 106.452 L 349.462 106.452 L 370.968 106.452 L 392.473 106.452 L 413.978 106.452 L 435.484 106.452 L 456.989 106.452 L 478.495 106.452 L 500 106.452 L 500 119.355 L 500 132.258 L 500 145.161 L 500 158.065 L 500 170.968 L 500 183.871 L 500 196.774 L 500 209.677 L 500 222.581 L 500 235.484 L 500 248.387 L 500 261.29 L 500 274.194 L 500 287.097 L 500 300 L 500 312.903 L 500 325.806 L 500 338.71 L 500 351.613 L 500 364.516 L 500 377.419 L 500 390.323 L 500 403.226 L 500 416.129 L 500 429.032 L 500 441.935 L 500 454.839 L 500 467.742 L 500 480.645 L 500 493.548 L 521.505 493.548 L 543.011 493.548 L 564.516 493.548 L 586.021 493.548 L 607.527 493.548 L 629.032 493.548 L 650.538 493.548 L 672.043 493.548 L 693.548 493.548 L 715.054 493.548 L 736.559 493.548 L 758.065 493.548 L 779.57 493.548 L 801.075 493.548 L 822.581 493.548 L 801.075 493.548 L 779.57 493.548 L 758.065 493.548 L 736.559 493.548 L 715.054 493.548 L 693.548 493.548 L 672.043 493.548 L 650.538 493.548 L 629.032 493.548 L 607.527 493.548 L 586.021 493.548 L 564.516 493.548 L 543.011 493.548 L 521.505 493.548 L 500 493.548 L 478.495 493.548 L 456.989 493.548 L 435.484 493.548 L 413.978 493.548 L 392.473 493.548 L 370.968 493.548 L 349.462 493.548 L 327.957 493.548 L 306.452 493.548 L 284.946 493.548 L 263.441 493.548 L 241.935 493.548 L 220.43 493.548 L 198.925 493.548 L 177.419 493.548 L 177.419 480.645 L 177.419 493.548 L 198.925 493.548 L 220.43 493.548 L 241.935 493.548 L 263.441 493.548 L 284.946 493.548 L 306.452 493.548 L 327.957 493.548 L 349.462 493.548 L 370.968 493.548 L 392.473 493.548 L 413.978 493.548 L 435.484 493.548 L 456.989 493.548 L 478.495 493.548 L 500 493.548"/> </g>
<g stroke="#007f00" stroke-dasharray=" 9.79796,9.79796" stroke-dashoffset="16.3331" stroke-width="1.22474"><path d=" M 338.71 493.548 L 338.71 480.645 L 338.71 467.742 L 338.71 454.839 L 338.71 441.935 L 338.71 429.032 L 338.71 416.129 L 338.71 403.226 L 338.71 390.323 L 338.71 377.419 L 338.71 364.516 L 338.71 351.613 L 338.71 338.71 L 338.71 325.806 L 338.71 312.903 L 338.71 300 L 338.71 287.097 L 338.71 274.194 L 338.71 261.29 L 338.71 248.387 L 338.71 235.484 L 338.71 222.581 L 338.71 209.677 L 338.71 196.774 L 338.71 183.871 L 338.71 170.968 L 338.71 158.065 L 338.71 145.161 L 338.71 132.258 L 338.71 119.355 L 338.71 106.452"/> </g>
<g stroke="#007f00" stroke-dasharray=" 9.79796,9.79796" stroke-dashoffset="3.37237" stroke-width="1.22474"><path d=" M 661.29 493.548 L 661.29 480.645 L 661.29 467.742 L 661.29 454.839 L 661.29 441.935 L 661.29 429.032 L 661.29 416.129 L 661.29 403.226 L 661.29 390.323 L 661.29 377.419 L 661.29 364.516 L 661.29 351.613 L 661.29 338.71 L 661.29 325.806 L 661.29 312.903 L 661.29 300 L 661.29 287.097 L 661.29 274.194 L 661.29 261.29 L 661.29 248.387 L 661.29 235.484 L 661.29 222.581 L 661.29 209.677 L 661.29 196.774 L 661.29 183.871 L 661.29 170.968 L 661.29 158.065 L 661.29 145.161 L 661.29 132.258 L 661.29 119.355 L 661.29 106.452"/> </g>
<g stroke="#007f00" stroke-dasharray=" 9.79796,9.79796" stroke-dashoffset="6.68996" stroke-width="1.22474"><path d=" M 822.581 493.548 L 822.581 480.645 L 822.581 467.742 L 822.581 454.839 L 822.581 441.935 L 822.581 429.032 L 822.581 416.129 L 822.581 403.226 L 822.581 390.323 L 822.581 377.419 L 822.581 364.516 L 822.581 351.613 L 822.581 338.71 L 822.581 325.806 L 822.581 312.903 L 822.581 300 L 822.581 287.097 L 822.581 274.194 L 822.581 261.29 L 822.581 248.387 L 822.581 235.484 L 822.581 222.581 L 822.581 209.677 L 822.581 196.774 L 822.581 183.871 L 822.581 170.968 L 822.581 158.065 L 822.581 145.161 L 822.581 132.258 L 822.581 119.355 L 822.581 106.452 L 801.075 106.452 L 779.57 106.452 L 758.065 106.452 L 736.559 106.452 L 715.054 106.452 L 693.548 106.452 L 672.043 106.452 L 650.538 106.452 L 629.032 106.452 L 607.527 106.452 L 586.021 106.452 L 564.516 106.452 L 543.011 106.452 L 521.505 106.452 L 500 106.452"/> </g>
<g stroke="#007f00" stroke-dasharray=" 9.79796,9.79796" stroke-dashoffset="9.00487" stroke-width="1.22474"><path d=" M 177.419 396.774 L 198.925 396.774 L 220.43 396.774 L 241.935 396.774 L 263.441 396.774 L 284.946 396.774 L 306.452 396.774 L 327.957 396.774 L 349.462 396.774 L 370.968 396.774 L 392.473 396.774 L 413.978 396.774 L 435.484 396.774 L 456.989 396.774 L 478.495 396.774 L 500 396.774 L 521.505 396.774 L 543.011 396.774 L 564.516 396.774 L 586.021 396.774 L 607.527 396.774 L 629.032 396.774 L 650.538 396.774 L 672.043 396.774 L 693.548 396.774 L 715.054 396.774 L 736.559 396.774 L 758.065 396.774 L 779.57 396.774 L 801.075 396.774 L 822.581 396.774"/> </g>
<g stroke="#007f00" stroke-dasharray=" 9.79796,9.79796" stroke-dashoffset="8.00219" stroke-width="1.22474"><path d=" M 177.419 300 L 198.925 300 L 220.43 300 L 241.935 300 L 263.441 300 L 284.946 300 L 306.452 300 L 327.957 300 L 349.462 300 L 370.968 300 L 392.473 300 L 413.978 300 L 435.484 300 L 456.989 300 L 478.495 300 L 500 300 L 521.505 300 L 543.011 300 L 564.516 300 L 586.021 300 L 607.527 300 L 629.032 300 L 650.538 300 L 672.043 300 L 693.548 300 L 715.054 300 L 736.559 300 L 758.065 300 L 779.57 300 L 801.075 300 L 822.581 300"/> </g>
<g stroke="#007f00" stroke-dasharray=" 9.79796,9.79796" stroke-dashoffset="6.99951" stroke-width="1.22474"><path d=" M 177.419 203.226 L 198.925 203.226 L 220.43 203.226 L 241.935 203.226 L 263.441 203.226 L 284.946 203.226 L 306.452 203.226 L 327.957 203.226 L 349.462 203.226 L 370.968 203.226 L 392.473 203.226 L 413.978 203.226 L 435.484 203.226 L 456.989 203.226 L 478.495 203.226 L 500 203.226 L 521.505 203.226 L 543.011 203.226 L 564.516 203.226 L 586.021 203.226 L 607.527 203.226 L 629.032 203.226 L 650.538 203.226 L 672.043 203.226 L 693.548 203.226 L 715.054 203.226 L 736.559 203.226 L 758.065 203.226 L 779.57 203.226 L 801.075 203.226 L 822.581 203.226"/> </g>
<g stroke="#000000" stroke-dasharray="" stroke-dashoffset="0" stroke-width="1.22474"><path d=" M 500 118.452 L 500 106.452 L 521.505 106.452 L 543.011 106.452 L 564.516 106.452 L 586.021 106.452 L 607.527 106.452 L 629.032 106.452 L 650.538 106.452 L 672.043 106.452 L 693.548 106.452 L 715.054 106.452 L 736.559 106.452 L 758.065 106.452 L 779.57 106.452 L 801.075 106.452 L 822.581 106.452 L 810.581 106.452 L 822.581 106.452 L 822.581 119.355 L 822.581 132.258 L 822.581 145.161 L 822.581 158.065 L 822.581 170.968 L 822.581 183.871 L 822.581 196.774 L 822.581 209.677 L 822.581 222.581 L 822.581 235.484 L 822.581 248.387 L 822.581 261.29 L 822.581 274.194 L 822.581 287.097 L 822.581 300 L 822.581 312.903 L 822.581 325.806 L 822.581 338.71 L 822.581 351.613 L 822.581 364.516 L 822.581 377.419 L 822.581 390.323 L 822.581 403.226 L 822.581 416.129 L 822.581 429.032 L 822.581 441.935 L 822.581 454.839 L 822.581 467.742 L 822.581 480.645 L 822.581 493.548 L 822.581 481.548 L 822.581 493.548 L 801.075 493.548 L 779.57 493.548 L 758.065 493.548 L 736.559 493.548 L 715.054 493.548 L 693.548 493.548 L 672.043 493.548 L 650.538 493.548 L 629.032 493.548 L 607.527 493.548 L 586.021 493.548 L 564.516 493.548 L 543.011 493.548 L 521.505 493.548 L 500 493.548 L 478.495 493.548 L 456.989 493.548 L 435.484 493.548 L 413.978 493.548 L 392.473 493.548 L 370.968 493.548 L 349.462 493.548 L 327.957 493.548 L 306.452 493.548 L 284.946 493.548 L 263.441 493.548 L 241.935 493.548 L 220.43 493.548 L 198.925 493.548 L 177.419 493.548 L 189.419 493.548 L 177.419 493.548 L 177.419 481.548 L 177.419 493.548 L 198.925 493.548 L 220.43 493.548 L 241.935 493.548 L 263.441 493.548 L 284.946 493.548 L 306.452 493.548 L 327.957 493.548 L 349.462 493.548 L 370.968 493.548 L 392.473 493.548 L 413.978 493.548 L 435.484 493.548 L 456.989 493.548 L 478.495 493.548 L 500 493.548 L 521.505 493.548 L 543.011 493.548 L 564.516 493.548 L 586.021 493.548 L 607.527 493.548 L 629.032 493.548 L 650.538 493.548 L 672.043 493.548 L 693.548 493.548 L 715.054 493.548 L 736.559 493.548 L 758.065 493.548 L 779.57 493.548 L 801.075 493.548 L 822.581 493.548 L 810.581 493.548 L 822.581 493.548 L 822.581 485.063"/> </g>
<g stroke="#000000" stroke-dasharray="" stroke-dashoffset="6.99732" stroke-width="1.22474"><path d=" M 338.71 481.548 L 338.71 493.548 L 338.71 481.548"/> </g>
<g stroke="#000000" stroke-dasharray="" stroke-dashoffset="14.9973" stroke-width="1.22474"><path d=" M 500 481.548 L 500 493.548 L 500 481.548"/> </g>
<g stroke="#000000" stroke-dasharray="" stroke-dashoffset="3.4014" stroke-width="1.22474"><path d=" M 661.29 481.548 L 661.29 493.548 L 661.29 481.548"/> </g>
<g stroke="#000000" stroke-dasharray="" stroke-dashoffset="1.42181" stroke-width="1.22474"><path d=" M 500 106.452 L 478.495 106.452 L 456.989 106.452 L 435.484 106.452 L 413.978 106.452 L 392.473 106.452 L 370.968 106.452 L 349.462 106.452 L 327.957 106.452 L 306.452 106.452 L 284.946 106.452 L 263.441 106.452 L 241.935 106.452 L 220.43 106.452 L 198.925 106.452 L 177.419 106.452 L 189.419 106.452 L 177.419 106.452 L 177.419 119.355 L 177.419 132.258 L 177.419 145.161 L 177.419 158.065 L 177.419 170.968 L 177.419 183.871 L 177.419 196.774 L 177.419 209.677 L 177.419 222.581 L 177.419 235.484 L 177.419 248.387 L 177.419 261.29 L 177.419 274.194 L 177.419 287.097 L 177.419 300 L 177.419 312.903 L 177.419 325.806 L 177.419 338.71 L 177.419 351.613 L 177.419 364.516 L 177.419 377.419 L 177.419 390.323 L 177.419 403.226 L 177.419 416.129 L 177.419 429.032 L 177.419 441.935 L 177.419 454.839 L 177.419 467.742 L 177.419 480.645 L 177.419 493.548 L 185.905 493.548 L 177.419 493.548 L 189.419 493.548 L 177.419 493.548 L 177.419 481.548 L 177.419 493.548 L 177.419 480.645 L 177.419 467.742 L 177.419 454.839 L 177.419 441.935 L 177.419 429.032 L 177.419 416.129 L 177.419 403.226 L 177.419 390.323 L 177.419 377.419 L 177.419 364.516 L 177.419 351.613 L 177.419 338.71 L 177.419 325.806 L 177.419 312.903 L 177.419 300 L 177.419 287.097 L 177.419 274.194 L 177.419 261.29 L 177.419 248.387 L 177.419 235.484 L 177.419 222.581 L 177.419 209.677 L 177.419 196.774 L 177.419 183.871 L 177.419 170.968 L 177.419 158.065 L 177.419 145.161 L 177.419 132.258 L 177.419 119.355 L 177.419 106.452 L 177.419 118.452 L 177.419 106.452 L 189.419 106.452"/> </g>
<g stroke="#000000" stroke-dasharray="" stroke-dashoffset="12.7394" stroke-width="1.22474"><path d=" M 189.419 396.774 L 177.419 396.774 L 189.419 396.774"/> </g>
<g stroke="#000000" stroke-dasharray="" stroke-dashoffset="1.14348" stroke-width="1.22474"><path d=" M 189.419 300 L 177.419 300 L 189.419 300"/> </g>
<g stroke="#000000" stroke-dasharray="" stroke-dashoffset="9.14348" stroke-width="1.22474"><path d=" M 189.419 203.226 L 177.419 203.226 L 189.419 203.226"/> </g>
<g stroke="#000000" stroke-dasharray="" stroke-dashoffset="9.28429" stroke-width="1.22474"><path d=" M 822.581 118.452 L 822.581 106.452 L 822.581 118.452"/> </g>
<g stroke="#000000" stroke-dasharray="" stroke-dashoffset="2.42777" stroke-width="1.22474"><path d=" M 338.71 106.452 L 338.71 118.452"/> </g>
<g stroke="#000000" stroke-dasharray="" stroke-dashoffset="18.4278" stroke-width="1.22474"><path d=" M 661.29 106.452 L 661.29 118.452"/> </g>
<g stroke="#000000" stroke-dasharray="" stroke-dashoffset="6.55353" stroke-width="1.22474"><path d=" M 822.581 396.774 L 810.581 396.774"/> </g>
<g stroke="#000000" stroke-dasharray="" stroke-dashoffset="14.5535" stroke-width="1.22474"><path d=" M 822.581 300 L 810.581 300"/> </g>
<g stroke="#000000" stroke-dasharray="" stroke-dashoffset="2.95761" stroke-width="1.22474"><path d=" M 822.581 203.226 L 810.581 203.226"/> </g>
<g stroke="#000000" stroke-dasharray="" stroke-dashoffset="0.978019" stroke-width="1.22474"><path d=" M 822.581 493.548 L 822.581 481.548"/> </g>
<g stroke="#000000" stroke-dasharray="" stroke-dashoffset="2.39983" stroke-width="1.22474"><path d=" M 177.419 485.063 L 177.419 493.548 L 177.419 485.063"/> </g>
<g stroke="#000000" stroke-dasharray="" stroke-dashoffset="8.05669" stroke-width="1.22474"><path d=" M 209.677 493.548 L 209.677 485.063"/> </g>
<g stroke="#000000" stroke-dasharray="" stroke-dashoffset="13.7135" stroke-width="1.22474"><path d=" M 241.935 493.548 L 241.935 485.063"/> </g>
<g stroke="#000000" stroke-dasharray="" stroke-dashoffset="19.3704" stroke-width="1.22474"><path d=" M 274.194 493.548 L 274.194 485.063"/> </g>
<g stroke="#000000" stroke-dasharray="" stroke-dashoffset="5.43133" stroke-width="1.22474"><path d=" M 306.452 493.548 L 306.452 485.063"/> </g>
<g stroke="#000000" stroke-dasharray="" stroke-dashoffset="11.0882" stroke-width="1.22474"><path d=" M 338.71 493.548 L 338.71 485.063"/> </g>
<g stroke="#000000" stroke-dasharray="" stroke-dashoffset="16.745" stroke-width="1.22474"><path d=" M 370.968 493.548 L 370.968 485.063"/> </g>
<g stroke="#000000" stroke-dasharray="" stroke-dashoffset="2.80598" stroke-width="1.22474"><path d=" M 403.226 493.548 L 403.226 485.063"/> </g>
<g stroke="#000000" stroke-dasharray="" stroke-dashoffset="8.46284" stroke-width="1.22474"><path d=" M 435.484 493.548 L 435.484 485.063"/> </g>
<g stroke="#000000" stroke-dasharray="" stroke-dashoffset="14.1197" stroke-width="1.22474"><path d=" M 467.742 493.548 L 467.742 485.063"/> </g>
<g stroke="#000000" stroke-dasharray="" stroke-dashoffset="0.180629" stroke-width="1.22474"><path d=" M 500 493.548 L 500 485.063"/> </g>
<g stroke="#000000" stroke-dasharray="" stroke-dashoffset="5.83748" stroke-width="1.22474"><path d=" M 532.258 493.548 L 532.258 485.063"/> </g>
<g stroke="#000000" stroke-dasharray="" stroke-dashoffset="11.4943" stroke-width="1.22474"><path d=" M 564.516 493.548 L 564.516 485.063"/> </g>
<g stroke="#000000" stroke-dasharray="" stroke-dashoffset="17.1512" stroke-width="1.22474"><path d=" M 596.774 493.548 L 596.774 485.063"/> </g>
<g stroke="#000000" stroke-dasharray="" stroke-dashoffset="3.21213" stroke-width="1.22474"><path d=" M 629.032 493.548 L 629.032 485.063"/> </g>
<g stroke="#000000" stroke-dasharray="" stroke-dashoffset="8.86899" stroke-width="1.22474"><path d=" M 661.29 493.548 L 661.29 485.063"/> </g>
<g stroke="#000000" stroke-dasharray="" stroke-dashoffset="14.5258" stroke-width="1.22474"><path d=" M 693.548 493.548 L 693.548 485.063"/> </g>
<g stroke="#000000" stroke-dasharray="" stroke-dashoffset="0.58678" stroke-width="1.22474"><path d=" M 725.806 493.548 L 725.806 485.063"/> </g>
<g stroke="#000000" stroke-dasharray="" stroke-dashoffset="6.24364" stroke-width="1.22474"><path d=" M 758.065 493.548 L 758.065 485.063"/> </g>
<g stroke="#000000" stroke-dasharray="" stroke-dashoffset="11.9005" stroke-width="1.22474"><path d=" M 790.323 493.548 L 790.323 485.063"/> </g>
<g stroke="#000000" stroke-dasharray="" stroke-dashoffset="17.454" stroke-width="1.22474"><path d=" M 177.419 474.194 L 185.905 474.194"/> </g>
<g stroke="#000000" stroke-dasharray="" stroke-dashoffset="3.51495" stroke-width="1.22474"><path d=" M 177.419 454.839 L 185.905 454.839"/> </g>
<g stroke="#000000" stroke-dasharray="" stroke-dashoffset="9.1718" stroke-width="1.22474"><path d=" M 177.419 435.484 L 185.905 435.484"/> </g>
<g stroke="#000000" stroke-dasharray="" stroke-dashoffset="14.8286" stroke-width="1.22474"><path d=" M 177.419 416.129 L 185.905 416.129"/> </g>
<g stroke="#000000" stroke-dasharray="" stroke-dashoffset="0.88958" stroke-width="1.22474"><path d=" M 177.419 396.774 L 185.905 396.774"/> </g>
<g stroke="#000000" stroke-dasharray="" stroke-dashoffset="6.54643" stroke-width="1.22474"><path d=" M 177.419 377.419 L 185.905 377.419"/> </g>
<g stroke="#000000" stroke-dasharray="" stroke-dashoffset="12.2033" stroke-width="1.22474"><path d=" M 177.419 358.065 L 185.905 358.065"/> </g>
<g stroke="#000000" stroke-dasharray="" stroke-dashoffset="17.8601" stroke-width="1.22474"><path d=" M 177.419 338.71 L 185.905 338.71"/> </g>
<g stroke="#000000" stroke-dasharray="" stroke-dashoffset="3.92106" stroke-width="1.22474"><path d=" M 177.419 319.355 L 185.905 319.355"/> </g>
<g stroke="#000000" stroke-dasharray="" stroke-dashoffset="9.57791" stroke-width="1.22474"><path d=" M 177.419 300 L 185.905 300"/> </g>
<g stroke="#000000" stroke-dasharray="" stroke-dashoffset="15.2348" stroke-width="1.22474"><path d=" M 177.419 280.645 L 185.905 280.645"/> </g>
<g stroke="#000000" stroke-dasharray="" stroke-dashoffset="1.2957" stroke-width="1.22474"><path d=" M 177.419 261.29 L 185.905 261.29"/> </g>
<g stroke="#000000" stroke-dasharray="" stroke-dashoffset="6.95255" stroke-width="1.22474"><path d=" M 177.419 241.935 L 185.905 241.935"/> </g>
<g stroke="#000000" stroke-dasharray="" stroke-dashoffset="12.6094" stroke-width="1.22474"><path d=" M 177.419 222.581 L 185.905 222.581"/> </g>
<g stroke="#000000" stroke-dasharray="" stroke-dashoffset="18.2662" stroke-width="1.22474"><path d=" M 177.419 203.226 L 185.905 203.226"/> </g>
<g stroke="#000000" stroke-dasharray="" stroke-dashoffset="4.32718" stroke-width="1.22474"><path d=" M 177.419 183.871 L 185.905 183.871"/> </g>
<g stroke="#000000" stroke-dasharray="" stroke-dashoffset="9.98403" stroke-width="1.22474"><path d=" M 177.419 164.516 L 185.905 164.516"/> </g>
<g stroke="#000000" stroke-dasharray="" stroke-dashoffset="15.6409" stroke-width="1.22474"><path d=" M 177.419 145.161 L 185.905 145.161"/> </g>
<g stroke="#000000" stroke-dasharray="" stroke-dashoffset="1.70181" stroke-width="1.22474"><path d=" M 177.419 125.806 L 185.905 125.806"/> </g>
<g stroke="#000000" stroke-dasharray="" stroke-dashoffset="7.35866" stroke-width="1.22474"><path d=" M 177.419 106.452 L 185.905 106.452"/> </g>
<g transform="translate(500,569.148) scale(0.0834,-0.0834) rotate(0)" fill="#000000"><use x="-125" y="-0" xlink:href="#nn_0000"/></g>
<g transform="translate(177.419,524.471) scale(0.0596,-0.0596) rotate(0)" fill="#000000"><use x="-296" y="-0" xlink:href="#nn_0002"/></g>
<g transform="translate(177.419,524.471) scale(0.0596,-0.0596) rotate(0)" fill="#000000"><use x="46" y="-0" xlink:href="#nn_0003"/></g>
<g transform="translate(338.71,524.471) scale(0.0596,-0.0596) rotate(0)" fill="#000000"><use x="-483.5" y="-0" xlink:href="#nn_0002"/></g>
<g transform="translate(338.71,524.471) scale(0.0596,-0.0596) rotate(0)" fill="#000000"><use x="-141.5" y="-0" xlink:href="#nn_0004"/></g>
<g transform="translate(338.71,524.471) scale(0.0596,-0.0596) rotate(0)" fill="#000000"><use x="108.5" y="-0" xlink:href="#nn_0005"/></g>
<g transform="translate(338.71,524.471) scale(0.0596,-0.0596) rotate(0)" fill="#000000"><use x="233.5" y="-0" xlink:href="#nn_0006"/></g>
<g transform="translate(500,524.471) scale(0.0596,-0.0596) rotate(0)" fill="#000000"><use x="-125" y="-0" xlink:href="#nn_0004"/></g>
<g transform="translate(661.29,524.471) scale(0.0596,-0.0596) rotate(0)" fill="#000000"><use x="-312.5" y="-0" xlink:href="#nn_0004"/></g>
<g transform="translate(661.29,524.471) scale(0.0596,-0.0596) rotate(0)" fill="#000000"><use x="-62.5" y="-0" xlink:href="#nn_0005"/></g>
<g transform="translate(661.29,524.471) scale(0.0596,-0.0596) rotate(0)" fill="#000000"><use x="62.5" y="-0" xlink:href="#nn_0006"/></g>
<g transform="translate(822.581,524.471) scale(0.0596,-0.0596) rotate(0)" fill="#000000"><use x="-125" y="-0" xlink:href="#nn_0003"/></g>
<g transform="translate(131.542,300) scale(0.0834,-0.0834) rotate(90)" fill="#000000"><use x="-125" y="-0" xlink:href="#nn_0001"/></g>
<g transform="translate(167.727,493.548) scale(0.0596,-0.0596) rotate(90)" fill="#000000"><use x="-296" y="-0" xlink:href="#nn_0002"/></g>
<g transform="translate(167.727,493.548) scale(0.0596,-0.0596) rotate(90)" fill="#000000"><use x="46" y="-0" xlink:href="#nn_0003"/></g>
<g transform="translate(167.727,396.774) scale(0.0596,-0.0596) rotate(90)" fill="#000000"><use x="-483.5" y="-0" xlink:href="#nn_0002"/></g>
<g transform="translate(167.727,396.774) scale(0.0596,-0.0596) rotate(90)" fill="#000000"><use x="-141.5" y="-0" xlink:href="#nn_0004"/></g>
<g transform="translate(167.727,396.774) scale(0.0596,-0.0596) rotate(90)" fill="#000000"><use x="108.5" y="-0" xlink:href="#nn_0005"/></g>
<g transform="translate(167.727,396.774) scale(0.0596,-0.0596) rotate(90)" fill="#000000"><use x="233.5" y="-0" xlink:href="#nn_0006"/></g>
<g transform="translate(167.727,300) scale(0.0596,-0.0596) rotate(90)" fill="#000000"><use x="-125" y="-0" xlink:href="#nn_0004"/></g>
<g transform="translate(167.727,203.226) scale(0.0596,-0.0596) rotate(90)" fill="#000000"><use x="-312.5" y="-0" xlink:href="#nn_0004"/></g>
<g transform="translate(167.727,203.226) scale(0.0596,-0.0596) rotate(90)" fill="#000000"><use x="-62.5" y="-0" xlink:href="#nn_0005"/></g>
<g transform="translate(167.727,203.226) scale(0.0596,-0.0596) rotate(90)" fill="#000000"><use x="62.5" y="-0" xlink:href="#nn_0006"/></g>
<g transform="translate(167.727,106.452) scale(0.0596,-0.0596) rotate(90)" fill="#000000"><use x="-125" y="-0" xlink:href="#nn_0003"/></g>
<g stroke="#0000ff" stroke-dasharray="" stroke-dashoffset="16.5687" stroke-width="1.22474"><path d=" M 177.419 300 L 180.661 280.497 L 183.903 261.304 L 187.145 242.727 L 190.387 225.063 L 193.629 208.593 L 196.871 193.579 L 200.113 180.26 L 203.355 168.848 L 206.598 159.525 L 209.84 152.44 L 213.082 147.706 L 216.324 145.398 L 219.566 145.552 L 222.808 148.166 L 226.05 153.199 L 229.292 160.571 L 232.534 170.164 L 235.776 181.824 L 239.018 195.367 L 242.26 210.577 L 245.502 227.212 L 248.744 245.006 L 251.986 263.675 L 255.228 282.924 L 258.47 302.444 L 261.712 321.926 L 264.954 341.058 L 268.196 359.536 L 271.438 377.066 L 274.68 393.369 L 277.922 408.184 L 281.164 421.275 L 284.406 432.435 L 287.648 441.485 L 290.89 448.282 L 294.132 452.716 L 297.374 454.718 L 300.616 454.255 L 303.858 451.335 L 307.1 446.005 L 310.342 438.349 L 313.584 428.488 L 316.826 416.582 L 320.068 402.818 L 323.31 387.416 L 326.552 370.622 L 329.794 352.703 L 333.036 333.944 L 336.278 314.645 L 339.52 295.112 L 342.762 275.657 L 346.004 256.59 L 349.246 238.215 L 352.488 220.823 L 355.73 204.693 L 358.972 190.081 L 362.214 177.22 L 365.456 166.315 L 368.698 157.539 L 371.94 151.033 L 375.182 146.899 L 378.424 145.205 L 381.666 145.976 L 384.908 149.2 L 388.15 154.827 L 391.392 162.766 L 394.634 172.892 L 397.876 185.042 L 401.118 199.023 L 404.361 214.612 L 407.603 231.562 L 410.845 249.602 L 414.087 268.445 L 417.329 287.791 L 420.571 307.331 L 423.813 326.754 L 427.055 345.751 L 430.297 364.019 L 433.539 381.267 L 436.781 397.221 L 440.023 411.627 L 443.265 424.254 L 446.507 434.902 L 449.749 443.401 L 452.991 449.615 L 456.233 453.447 L 459.475 454.834 L 462.717 453.755 L 465.959 450.226 L 469.201 444.305 L 472.443 436.085 L 475.685 425.697 L 478.927 413.307 L 482.169 399.112 L 485.411 383.338 L 488.653 366.237 L 491.895 348.08 L 495.137 329.158 L 498.379 309.771 L 501.621 290.229 L 504.863 270.842 L 508.105 251.92 L 511.347 233.763 L 514.589 216.662 L 517.831 200.888 L 521.073 186.693 L 524.315 174.303 L 527.557 163.915 L 530.799 155.695 L 534.041 149.774 L 537.283 146.245 L 540.525 145.166 L 543.767 146.553 L 547.009 150.385 L 550.251 156.599 L 553.493 165.098 L 556.735 175.746 L 559.977 188.373 L 563.219 202.779 L 566.461 218.733 L 569.703 235.981 L 572.945 254.249 L 576.187 273.246 L 579.429 292.669 L 582.671 312.209 L 585.913 331.555 L 589.155 350.398 L 592.397 368.438 L 595.639 385.388 L 598.882 400.977 L 602.124 414.958 L 605.366 427.108 L 608.608 437.234 L 611.85 445.173 L 615.092 450.8 L 618.334 454.024 L 621.576 454.795 L 624.818 453.101 L 628.06 448.967 L 631.302 442.461 L 634.544 433.685 L 637.786 422.78 L 641.028 409.919 L 644.27 395.307 L 647.512 379.177 L 650.754 361.785 L 653.996 343.41 L 657.238 324.343 L 660.48 304.888 L 663.722 285.355 L 666.964 266.056 L 670.206 247.297 L 673.448 229.378 L 676.69 212.584 L 679.932 197.182 L 683.174 183.418 L 686.416 171.512 L 689.658 161.651 L 692.9 153.995 L 696.142 148.664 L 699.384 145.745 L 702.626 145.282 L 705.868 147.284 L 709.11 151.718 L 712.352 158.515 L 715.594 167.565 L 718.836 178.725 L 722.078 191.816 L 725.32 206.631 L 728.562 222.934 L 731.804 240.464 L 735.046 258.942 L 738.288 278.074 L 741.53 297.556 L 744.772 317.076 L 748.014 336.325 L 751.256 354.994 L 754.498 372.788 L 757.74 389.423 L 760.982 404.633 L 764.224 418.176 L 767.466 429.836 L 770.708 439.429 L 773.95 446.801 L 777.192 451.834 L 780.434 454.448 L 783.676 454.602 L 786.918 452.294 L 790.16 447.56 L 793.403 440.475 L 796.645 431.152 L 799.887 419.74 L 803.129 406.421 L 806.371 391.407 L 809.613 374.937 L 812.855 357.273 L 816.097 338.696 L 819.339 319.503 L 822.581 300"/> </g>
<g stroke="#000000" stroke-dasharray="" stroke-dashoffset="8.05669" stroke-width="1.22474"><path d=" M 177.419 485.063 L 177.419 493.548 L 177.419 493.548 L 177.419 493.548 L 177.419 493.548 L 177.419 493.548 L 177.419 493.548 L 177.419 493.548 L 185.905 493.548 L 177.419 493.548 L 177.419 485.063 L 177.419 493.548 L 177.419 493.548 L 177.419 493.548 L 185.905 493.548 L 177.419 493.548 L 177.419 485.063 L 177.419 493.548 L 177.419 493.548 L 177.419 493.548 L 177.419 493.548 L 177.419 493.548 L 177.419 493.548 L 177.419 493.548 L 177.419 493.548 L 177.419 493.548 L 177.419 493.548 L 177.419 493.548 L 185.905 493.548"/> </g>
<g stroke="#000000" stroke-dasharray="" stroke-dashoffset="13.7135" stroke-width="1.22474"><path d=" M 209.677 493.548 L 209.677 493.548"/> </g>
<g stroke="#000000" stroke-dasharray="" stroke-dashoffset="19.3704" stroke-width="1.22474"><path d=" M 241.935 493.548 L 241.935 493.548"/> </g>
<g stroke="#000000" stroke-dasharray="" stroke-dashoffset="5.43133" stroke-width="1.22474"><path d=" M 274.194 493.548 L 274.194 493.548"/> </g>
<g stroke="#000000" stroke-dasharray="" stroke-dashoffset="11.0882" stroke-width="1.22474"><path d=" M 306.452 493.548 L 306.452 493.548"/> </g>
<g stroke="#000000" stroke-dasharray="" stroke-dashoffset="16.745" stroke-width="1.22474"><path d=" M 338.71 493.548 L 338.71 493.548 L 338.71 493.548 L 338.71 493.548"/> </g>
<g stroke="#000000" stroke-dasharray="" stroke-dashoffset="2.80598" stroke-width="1.22474"><path d=" M 370.968 493.548 L 370.968 493.548"/> </g>
<g stroke="#000000" stroke-dasharray="" stroke-dashoffset="8.46284" stroke-width="1.22474"><path d=" M 403.226 493.548 L 403.226 493.548"/> </g>
<g stroke="#000000" stroke-dasharray="" stroke-dashoffset="14.1197" stroke-width="1.22474"><path d=" M 435.484 493.548 L 435.484 493.548"/> </g>
<g stroke="#000000" stroke-dasharray="" stroke-dashoffset="0.180629" stroke-width="1.22474"><path d=" M 467.742 493.548 L 467.742 493.548"/> </g>
<g stroke="#000000" stroke-dasharray="" stroke-dashoffset="5.83748" stroke-width="1.22474"><path d=" M 500 493.548 L 500 493.548 L 500 493.548 L 500 493.548"/> </g>
<g stroke="#000000" stroke-dasharray="" stroke-dashoffset="11.4943" stroke-width="1.22474"><path d=" M 532.258 493.548 L 532.258 493.548"/> </g>
<g stroke="#000000" stroke-dasharray="" stroke-dashoffset="17.1512" stroke-width="1.22474"><path d=" M 564.516 493.548 L 564.516 493.548"/> </g>
<g stroke="#000000" stroke-dasharray="" stroke-dashoffset="3.21213" stroke-width="1.22474"><path d=" M 596.774 493.548 L 596.774 493.548"/> </g>
<g stroke="#000000" stroke-dasharray="" stroke-dashoffset="8.86899" stroke-width="1.22474"><path d=" M 629.032 493.548 L 629.032 493.548"/> </g>
<g stroke="#000000" stroke-dasharray="" stroke-dashoffset="14.5258" stroke-width="1.22474"><path d=" M 661.29 493.548 L 661.29 493.548 L 661.29 493.548 L 661.29 493.548"/> </g>
<g stroke="#000000" stroke-dasharray="" stroke-dashoffset="0.58678" stroke-width="1.22474"><path d=" M 693.548 493.548 L 693.548 493.548"/> </g>
<g stroke="#000000" stroke-dasharray="" stroke-dashoffset="6.24364" stroke-width="1.22474"><path d=" M 725.806 493.548 L 725.806 493.548"/> </g>
<g stroke="#000000" stroke-dasharray="" stroke-dashoffset="11.9005" stroke-width="1.22474"><path d=" M 758.065 493.548 L 758.065 493.548"/> </g>
<g stroke="#000000" stroke-dasharray="" stroke-dashoffset="17.5573" stroke-width="1.22474"><path d=" M 790.323 493.548 L 790.323 493.548"/> </g>
<g stroke="#000000" stroke-dasharray="" stroke-dashoffset="3.61828" stroke-width="1.22474"><path d=" M 822.581 481.548 L 822.581 493.548 L 822.581 493.548 L 822.581 493.548 L 822.581 493.548 L 822.581 493.548 L 822.581 493.548 L 822.581 493.548 L 822.581 493.548 L 822.581 493.548 L 822.581 493.548 L 822.581 493.548 L 822.581 493.548 L 822.581 493.548 L 810.581 493.548"/> </g>
<g stroke="#000000" stroke-dasharray="" stroke-dashoffset="3.51495" stroke-width="1.22474"><path d=" M 177.419 474.194 L 177.419 474.194"/> </g>
<g stroke="#000000" stroke-dasharray="" stroke-dashoffset="9.1718" stroke-width="1.22474"><path d=" M 177.419 454.839 L 177.419 454.839"/> </g>
<g stroke="#000000" stroke-dasharray="" stroke-dashoffset="14.8286" stroke-width="1.22474"><path d=" M 177.419 435.484 L 177.419 435.484"/> </g>
<g stroke="#000000" stroke-dasharray="" stroke-dashoffset="0.88958" stroke-width="1.22474"><path d=" M 177.419 416.129 L 177.419 416.129"/> </g>
<g stroke="#000000" stroke-dasharray="" stroke-dashoffset="6.54643" stroke-width="1.22474"><path d=" M 177.419 396.774 L 177.419 396.774 L 177.419 396.774 L 177.419 396.774"/> </g>
<g stroke="#000000" stroke-dasharray="" stroke-dashoffset="12.2033" stroke-width="1.22474"><path d=" M 177.419 377.419 L 177.419 377.419"/> </g>
<g stroke="#000000" stroke-dasharray="" stroke-dashoffset="17.8601" stroke-width="1.22474"><path d=" M 177.419 358.065 L 177.419 358.065"/> </g>
<g stroke="#000000" stroke-dasharray="" stroke-dashoffset="3.92106" stroke-width="1.22474"><path d=" M 177.419 338.71 L 177.419 338.71"/> </g>
<g stroke="#000000" stroke-dasharray="" stroke-dashoffset="9.57791" stroke-width="1.22474"><path d=" M 177.419 319.355 L 177.419 319.355"/> </g>
<g stroke="#000000" stroke-dasharray="" stroke-dashoffset="15.2348" stroke-width="1.22474"><path d=" M 177.419 300 L 177.419 300 L 177.419 300 L 177.419 300"/> </g>
<g stroke="#000000" stroke-dasharray="" stroke-dashoffset="1.2957" stroke-width="1.22474"><path d=" M 177.419 280.645 L 177.419 280.645"/> </g>
<g stroke="#000000" stroke-dasharray="" stroke-dashoffset="6.95255" stroke-width="1.22474"><path d=" M 177.419 261.29 L 177.419 261.29"/> </g>
<g stroke="#000000" stroke-dasharray="" stroke-dashoffset="12.6094" stroke-width="1.22474"><path d=" M 177.419 241.935 L 177.419 241.935"/> </g>
<g stroke="#000000" stroke-dasharray="" stroke-dashoffset="18.2662" stroke-width="1.22474"><path d=" M 177.419 222.581 L 177.419 222.581"/> </g>
<g stroke="#000000" stroke-dasharray="" stroke-dashoffset="4.32718" stroke-width="1.22474"><path d=" M 177.419 203.226 L 177.419 203.226 L 177.419 203.226 L 177.419 203.226"/> </g>
<g stroke="#000000" stroke-dasharray="" stroke-dashoffset="9.98403" stroke-width="1.22474"><path d=" M 177.419 183.871 L 177.419 183.871"/> </g>
<g stroke="#000000" stroke-dasharray="" stroke-dashoffset="15.6409" stroke-width="1.22474"><path d=" M 177.419 164.516 L 177.419 164.516"/> </g>
<g stroke="#000000" stroke-dasharray="" stroke-dashoffset="1.70181" stroke-width="1.22474"><path d=" M 177.419 145.161 L 177.419 145.161"/> </g>
<g stroke="#000000" stroke-dasharray="" stroke-dashoffset="7.35866" stroke-width="1.22474"><path d=" M 177.419 125.806 L 177.419 125.806"/> </g>
<g stroke="#000000" stroke-dasharray="" stroke-dashoffset="13.0155" stroke-width="1.22474"><path d=" M 177.419 118.452 L 177.419 106.452 L 177.419 106.452 L 177.419 106.452 L 177.419 106.452 L 177.419 106.452 L 177.419 106.452 L 177.419 106.452 L 177.419 106.452 L 177.419 106.452 L 177.419 106.452 L 177.419 106.452 L 177.419 106.452 L 177.419 106.452 L 189.419 106.452"/> </g>
<g stroke="#000000" stroke-dasharray="" stroke-dashoffset="10.4278" stroke-width="1.22474"><path d=" M 338.71 106.452 L 338.71 106.452"/> </g>
<g stroke="#000000" stroke-dasharray="" stroke-dashoffset="18.4278" stroke-width="1.22474"><path d=" M 500 106.452 L 500 106.452"/> </g>
<g stroke="#000000" stroke-dasharray="" stroke-dashoffset="6.83185" stroke-width="1.22474"><path d=" M 661.29 106.452 L 661.29 106.452"/> </g>
<g stroke="#000000" stroke-dasharray="" stroke-dashoffset="14.8319" stroke-width="1.22474"><path d=" M 822.581 118.452 L 822.581 106.452 L 822.581 106.452 L 822.581 106.452 L 822.581 106.452 L 822.581 106.452 L 822.581 106.452 L 822.581 106.452 L 822.581 106.452 L 822.581 106.452 L 822.581 106.452 L 822.581 106.452 L 810.581 106.452"/> </g>
<g stroke="#000000" stroke-dasharray="" stroke-dashoffset="14.5535" stroke-width="1.22474"><path d=" M 822.581 396.774 L 822.581 396.774"/> </g>
<g stroke="#000000" stroke-dasharray="" stroke-dashoffset="2.95761" stroke-width="1.22474"><path d=" M 822.581 300 L 822.581 300"/> </g>
<g stroke="#000000" stroke-dasharray="" stroke-dashoffset="10.9576" stroke-width="1.22474"><path d=" M 822.581 203.226 L 822.581 203.226"/> </g>
<g stroke="#007f00" stroke-dasharray=" 9.79796,9.79796" stroke-dashoffset="16.3331" stroke-width="1.22474"><path d=" M 177.419 106.452 L 177.419 106.452 L 177.419 106.452 L 177.419 106.452 L 177.419 106.452 L 177.419 106.452 L 177.419 106.452 L 177.419 106.452 L 177.419 106.452 L 177.419 119.355 L 177.419 132.258 L 177.419 145.161 L 177.419 158.065 L 177.419 170.968 L 177.419 183.871 L 177.419 196.774 L 177.419 209.677 L 177.419 222.581 L 177.419 235.484 L 177.419 248.387 L 177.419 261.29 L 177.419 274.194 L 177.419 287.097 L 177.419 300 L 177.419 312.903 L 177.419 325.806 L 177.419 338.71 L 177.419 351.613 L 177.419 364.516 L 177.419 377.419 L 177.419 390.323 L 177.419 403.226 L 177.419 416.129 L 177.419 429.032 L 177.419 441.935 L 177.419 454.839 L 177.419 467.742 L 177.419 480.645 L 177.419 493.548 L 177.419 493.548 L 177.419 493.548 L 177.419 493.548 L 177.419 493.548 L 177.419 493.548 L 177.419 493.548 L 177.419 493.548 L 177.419 493.548 L 177.419 493.548 L 177.419 493.548 L 177.419 493.548 L 177.419 493.548 L 177.419 493.548 L 177.419 493.548 L 177.419 493.548 L 177.419 493.548 L 198.925 493.548 L 220.43 493.548 L 241.935 493.548 L 263.441 493.548 L 284.946 493.548 L 306.452 493.548 L 327.957 493.548 L 349.462 493.548 L 370.968 493.548 L 392.473 493.548 L 413.978 493.548 L 435.484 493.548 L 456.989 493.548 L 478.495 493.548 L 500 493.548 L 521.505 493.548 L 543.011 493.548 L 564.516 493.548 L 586.021 493.548 L 607.527 493.548 L 629.032 493.548 L 650.538 493.548 L 672.043 493.548 L 693.548 493.548 L 715.054 493.548 L 736.559 493.548 L 758.065 493.548 L 779.57 493.548 L 801.075 493.548 L 822.581 493.548 L 822.581 493.548 L 822.581 493.548 L 822.581 493.548 L 822.581 493.548 L 822.581 493.548 L 822.581 493.548 L 822.581 493.548 L 822.581 493.548"/> </g>
<g stroke="#007f00" stroke-dasharray=" 9.79796,9.79796" stroke-dashoffset="0.0547755" stroke-width="1.22474"><path d=" M 338.71 493.548 L 338.71 493.548 L 338.71 493.548 L 338.71 493.548 L 338.71 493.548 L 338.71 493.548 L 338.71 493.548 L 338.71 493.548 L 338.71 493.548"/> </g>
<g stroke="#007f00" stroke-dasharray=" 9.79796,9.79796" stroke-dashoffset="3.37237" stroke-width="1.22474"><path d=" M 500 493.548 L 500 493.548 L 500 493.548 L 500 493.548 L 500 493.548 L 500 493.548 L 500 493.548 L 500 493.548 L 500 493.548"/> </g>
<g stroke="#007f00" stroke-dasharray=" 9.79796,9.79796" stroke-dashoffset="6.68996" stroke-width="1.22474"><path d=" M 661.29 493.548 L 661.29 493.548 L 661.29 493.548 L 661.29 493.548 L 661.29 493.548 L 661.29 493.548 L 661.29 493.548 L 661.29 493.548 L 661.29 493.548"/> </g>
<g stroke="#007f00" stroke-dasharray=" 9.79796,9.79796" stroke-dashoffset="8.00219" stroke-width="1.22474"><path d=" M 177.419 396.774 L 177.419 396.774 L 177.419 396.774 L 177.419 396.774 L 177.419 396.774 L 177.419 396.774 L 177.419 396.774 L 177.419 396.774 L 177.419 396.774"/> </g>
<g stroke="#007f00" stroke-dasharray=" 9.79796,9.79796" stroke-dashoffset="6.99951" stroke-width="1.22474"><path d=" M 177.419 300 L 177.419 300 L 177.419 300 L 177.419 300 L 177.419 300 L 177.419 300 L 177.419 300 L 177.419 300 L 177.419 300"/> </g>
<g stroke="#007f00" stroke-dasharray=" 9.79796,9.79796" stroke-dashoffset="5.99682" stroke-width="1.22474"><path d=" M 177.419 203.226 L 177.419 203.226 L 177.419 203.226 L 177.419 203.226 L 177.419 203.226 L 177.419 203.226 L 177.419 203.226 L 177.419 203.226 L 177.419 203.226"/> </g>
<g stroke="#000000" stroke-dasharray="" stroke-dashoffset="19.4014" stroke-width="1.22474"><path d=" M 177.419 493.548 L 177.419 493.548 L 189.419 493.548 L 177.419 493.548 L 177.419 481.548 L 177.419 493.548 L 177.419 493.548 L 177.419 493.548 L 177.419 493.548"/> </g>
<g stroke="#007f00" stroke-dasharray=" 9.79796,9.79796" stroke-dashoffset="16.3331" stroke-width="1.22474"><path d=" M 177.419 106.452 L 177.419 106.452 L 177.419 106.452 L 177.419 106.452 L 177.419 106.452 L 177.419 106.452 L 177.419 106.452 L 177.419 106.452 L 177.419 119.355 L 177.419 132.258 L 177.419 145.161 L 177.419 158.065 L 177.419 170.968 L 177.419 183.871 L 177.419 196.774 L 177.419 209.677 L 177.419 222.581 L 177.419 235.484 L 177.419 248.387 L 177.419 261.29 L 177.419 274.194 L 177.419 287.097 L 177.419 300 L 177.419 312.903 L 177.419 325.806 L 177.419 338.71 L 177.419 351.613 L 177.419 364.516 L 177.419 377.419 L 177.419 390.323 L 177.419 403.226 L 177.419 416.129 L 177.419 429.032 L 177.419 441.935 L 177.419 454.839 L 177.419 467.742 L 177.419 480.645 L 177.419 493.548 L 177.419 493.548 L 177.419 493.548 L 177.419 493.548 L 177.419 493.548 L 177.419 493.548 L 177.419 493.548 L 177.419 493.548 L 177.419 493.548 L 177.419 493.548 L 177.419 493.548 L 177.419 493.548 L 177.419 493.548 L 177.419 493.548 L 177.419 493.548 L 198.925 493.548 L 220.43 493.548 L 241.935 493.548 L 263.441 493.548 L 284.946 493.548 L 306.452 493.548 L 327.957 493.548 L 349.462 493.548 L 370.968 493.548 L 392.473 493.548 L 413.978 493.548 L 435.484 493.548 L 456.989 493.548 L 478.495 493.548 L 500 493.548 L 521.505 493.548 L 543.011 493.548 L 564.516 493.548 L 586.021 493.548 L 607.527 493.548 L 629.032 493.548 L 650.538 493.548 L 672.043 493.548 L 693.548 493.548 L 715.054 493.548 L 736.559 493.548 L 758.065 493.548 L 779.57 493.548 L 801.075 493.548 L 822.581 493.548 L 822.581 493.548 L 822.581 493.548 L 822.581 493.548 L 822.581 493.548 L 822.581 493.548 L 822.581 493.548 L 822.581 493.548"/> </g>
<g stroke="#007f00" stroke-dasharray=" 9.79796,9.79796" stroke-dashoffset="0.0547755" stroke-width="1.22474"><path d=" M 338.71 493.548 L 338.71 493.548 L 338.71 493.548 L 338.71 493.548 L 338.71 493.548 L 338.71 493.548 L 338.71 493.548 L 338.71 493.548"/> </g>
<g stroke="#007f00" stroke-dasharray=" 9.79796,9.79796" stroke-dashoffset="3.37237" stroke-width="1.22474"><path d=" M 500 493.548 L 500 493.548 L 500 493.548 L 500 493.548 L 500 493.548 L 500 493.548 L 500 493.548 L 500 493.548"/> </g>
<g stroke="#007f00" stroke-dasharray=" 9.79796,9.79796" stroke-dashoffset="6.68996" stroke-width="1.22474"><path d=" M 661.29 493.548 L 661.29 493.548 L 661.29 493.548 L 661.29 493.548 L 661.29 493.548 L 661.29 493.548 L 661.29 493.548 L 661.29 493.548"/> </g>
<g stroke="#007f00" stroke-dasharray=" 9.79796,9.79796" stroke-dashoffset="8.00219" stroke-width="1.22474"><path d=" M 177.419 396.774 L 177.419 396.774 L 177.419 396.774 L 177.419 396.774 L 177.419 396.774 L 177.419 396.774 L 177.419 396.774 L 177.419 396.774"/> </g>
<g stroke="#007f00" stroke-dasharray=" 9.79796,9.79796" stroke-dashoffset="6.99951" stroke-width="1.22474"><path d=" M 177.419 300 L 177.419 300 L 177.419 300 L 177.419 300 L 177.419 300 L 177.419 300 L 177.419 300 L 177.419 300"/> </g>
<g stroke="#007f00" stroke-dasharray=" 9.79796,9.79796" stroke-dashoffset="5.99682" stroke-width="1.22474"><path d=" M 177.419 203.226 L 177.419 203.226 L 177.419 203.226 L 177.419 203.226 L 177.419 203.226 L 177.419 203.226 L 177.419 203.226 L 177.419 203.226"/> </g>
<g stroke="#000000" stroke-dasharray="" stroke-dashoffset="19.4014" stroke-width="1.22474"><path d=" M 177.419 485.063 L 177.419 493.548 L 177.419 493.548 L 177.419 493.548 L 177.419 493.548 L 177.419 493.548 L 177.419 493.548 L 177.419 493.548 L 185.905 493.548 L 177.419 493.548 L 177.419 485.063 L 177.419 493.548 L 177.419 493.548 L 177.419 493.548 L 177.419 493.548 L 177.419 493.548 L 185.905 493.548 L 177.419 493.548 L 177.419 485.063 L 177.419 493.548 L 177.419 493.548 L 177.419 493.548 L 185.905 493.548"/> </g>
<g stroke="#000000" stroke-dasharray="" stroke-dashoffset="9.28429" stroke-width="1.22474"><path d=" M 822.581 118.452 L 822.581 106.452 L 822.581 106.452 L 822.581 106.452 L 822.581 106.452 L 822.581 106.452 L 822.581 106.452 L 822.581 106.452 L 822.581 106.452 L 810.581 106.452"/> </g>
<g stroke="#000000" stroke-dasharray="" stroke-dashoffset="18.9576" stroke-width="1.22474"><path d=" M 177.419 118.452 L 177.419 106.452 L 177.419 106.452 L 177.419 106.452 L 177.419 106.452 L 177.419 106.452 L 177.419 106.452 L 177.419 106.452 L 177.419 106.452 L 189.419 106.452"/> </g>
<g stroke="#000000" stroke-dasharray="" stroke-dashoffset="0.978019" stroke-width="1.22474"><path d=" M 822.581 481.548 L 822.581 493.548 L 822.581 493.548 L 822.581 493.548 L 822.581 493.548 L 822.581 493.548 L 822.581 493.548 L 822.581 493.548 L 822.581 493.548 L 810.581 493.548"/> </g>
<g stroke="#000000" stroke-dasharray="" stroke-dashoffset="19.4014" stroke-width="1.22474"><path d=" M 177.419 493.548 L 189.419 493.548 L 177.419 493.548 L 177.419 481.548 L 177.419 493.548 L 177.419 493.548 L 177.419 493.548"/> </g>
<g stroke="#007f00" stroke-dasharray=" 9.79796,9.79796" stroke-dashoffset="16.3331" stroke-width="1.22474"><path d=" M 177.419 106.452 L 177.419 106.452 L 177.419 106.452 L 177.419 106.452 L 177.419 106.452 L 177.419 106.452 L 177.419 106.452 L 177.419 106.452 L 177.419 106.452 L 177.419 119.355 L 177.419 132.258 L 177.419 145.161 L 177.419 158.065 L 177.419 170.968 L 177.419 183.871 L 177.419 196.774 L 177.419 209.677 L 177.419 222.581 L 177.419 235.484 L 177.419 248.387 L 177.419 261.29 L 177.419 274.194 L 177.419 287.097 L 177.419 300 L 177.419 312.903 L 177.419 325.806 L 177.419 338.71 L 177.419 351.613 L 177.419 364.516 L 177.419 377.419 L 177.419 390.323 L 177.419 403.226 L 177.419 416.129 L 177.419 429.032 L 177.419 441.935 L 177.419 454.839 L 177.419 467.742 L 177.419 480.645 L 177.419 493.548 L 177.419 493.548 L 177.419 493.548 L 177.419 493.548 L 177.419 493.548 L 177.419 493.548 L 177.419 493.548 L 177.419 493.548 L 177.419 493.548 L 177.419 493.548 L 177.419 493.548 L 177.419 493.548 L 177.419 493.548 L 177.419 493.548 L 177.419 493.548 L 177.419 493.548 L 177.419 493.548 L 198.925 493.548 L 220.43 493.548 L 241.935 493.548 L 263.441 493.548 L 284.946 493.548 L 306.452 493.548 L 327.957 493.548 L 349.462 493.548 L 370.968 493.548 L 392.473 493.548 L 413.978 493.548 L 435.484 493.548 L 456.989 493.548 L 478.495 493.548 L 500 493.548 L 521.505 493.548 L 543.011 493.548 L 564.516 493.548 L 586.021 493.548 L 607.527 493.548 L 629.032 493.548 L 650.538 493.548 L 672.043 493.548 L 693.548 493.548 L 715.054 493.548 L 736.559 493.548 L 758.065 493.548 L 779.57 493.548 L 801.075 493.548 L 822.581 493.548 L 822.581 493.548 L 822.581 493.548 L 822.581 493.548 L 822.581 493.548 L 822.581 493.548 L 822.581 493.548 L 822.581 493.548 L 822.581 493.548"/> </g>
<g stroke="#007f00" stroke-dasharray=" 9.79796,9.79796" stroke-dashoffset="0.0547755" stroke-width="1.22474"><path d=" M 338.71 493.548 L 338.71 493.548 L 338.71 493.548 L 338.71 493.548 L 338.71 493.548 L 338.71 493.548 L 338.71 493.548 L 338.71 493.548 L 338.71 493.548"/> </g>
<g stroke="#007f00" stroke-dasharray=" 9.79796,9.79796" stroke-dashoffset="3.37237" stroke-width="1.22474"><path d=" M 500 493.548 L 500 493.548 L 500 493.548 L 500 493.548 L 500 493.548 L 500 493.548 L 500 493.548 L 500 493.548 L 500 493.548"/> </g>
<g stroke="#007f00" stroke-dasharray=" 9.79796,9.79796" stroke-dashoffset="6.68996" stroke-width="1.22474"><path d=" M 661.29 493.548 L 661.29 493.548 L 661.29 493.548 L 661.29 493.548 L 661.29 493.548 L 661.29 493.548 L 661.29 493.548 L 661.29 493.548 L 661.29 493.548"/> </g>
<g stroke="#007f00" stroke-dasharray=" 9.79796,9.79796" stroke-dashoffset="8.00219" stroke-width="1.22474"><path d=" M 177.419 396.774 L 177.419 396.774 L 177.419 396.774 L 177.419 396.774 L 177.419 396.774 L 177.419 396.774 L 177.419 396.774 L 177.419 396.774 L 177.419 396.774"/> </g>
<g stroke="#007f00" stroke-dasharray=" 9.79796,9.79796" stroke-dashoffset="6.99951" stroke-width="1.22474"><path d=" M 177.419 300 L 177.419 300 L 177.419 300 L 177.419 300 L 177.419 300 L 177.419 300 L 177.419 300 L 177.419 300 L 177.419 300"/> </g>
<g stroke="#007f00" stroke-dasharray=" 9.79796,9.79796" stroke-dashoffset="5.99682" stroke-width="1.22474"><path d=" M 177.419 203.226 L 177.419 203.226 L 177.419 203.226 L 177.419 203.226 L 177.419 203.226 L 177.419 203.226 L 177.419 203.226 L 177.419 203.226 L 177.419 203.226"/> </g>
<g stroke="#000000" stroke-dasharray="" stroke-dashoffset="19.4014" stroke-width="1.22474"><path d=" M 177.419 485.063 L 177.419 493.548 L 177.419 493.548 L 177.419 493.548 L 177.419 493.548 L 177.419 493.548 L 177.419 493.548 L 177.419 493.548 L 185.905 493.548 L 177.419 493.548 L 177.419 485.063 L 177.419 493.548 L 177.419 493.548 L 177.419 493.548 L 185.905 493.548 L 177.419 493.548 L 177.419 485.063 L 177.419 493.548 L 177.419 493.548 L 177.419 493.548 L 177.419 493.548 L 177.419 493.548 L 185.905 493.548"/> </g>
<g stroke="#000000" stroke-dasharray="" stroke-dashoffset="9.28429" stroke-width="1.22474"><path d=" M 822.581 118.452 L 822.581 106.452 L 822.581 106.452 L 822.581 106.452 L 822.581 106.452 L 822.581 106.452 L 822.581 106.452 L 822.581 106.452 L 822.581 106.452 L 822.581 106.452 L 810.581 106.452"/> </g>
<g stroke="#000000" stroke-dasharray="" stroke-dashoffset="18.9576" stroke-width="1.22474"><path d=" M 177.419 118.452 L 177.419 106.452 L 177.419 106.452 L 177.419 106.452 L 177.419 106.452 L 177.419 106.452 L 177.419 106.452 L 177.419 106.452 L 177.419 106.452 L 177.419 106.452 L 189.419 106.452"/> </g>
<g stroke="#000000" stroke-dasharray="" stroke-dashoffset="0.978019" stroke-width="1.22474"><path d=" M 822.581 481.548 L 822.581 493.548 L 822.581 493.548 L 822.581 493.548 L 822.581 493.548 L 822.581 493.548 L 822.581 493.548 L 822.581 493.548 L 822.581 493.548 L 822.581 493.548 L 810.581 493.548"/> </g>
<g stroke="#000000" stroke-dasharray="" stroke-dashoffset="19.4014" stroke-width="1.22474"><path d=" M 177.419 493.548 L 177.419 493.548 L 189.419 493.548 L 177.419 493.548 L 177.419 481.548 L 177.419 493.548 L 177.419 493.548 L 177.419 493.548 L 177.419 493.548"/> </g>
<g stroke="#007f00" stroke-dasharray=" 9.79796,9.79796" stroke-dashoffset="16.3331" stroke-width="1.22474"><path d=" M 177.419 106.452 L 177.419 106.452 L 177.419 106.452 L 177.419 106.452 L 177.419 106.452 L 177.419 106.452 L 177.419 106.452 L 177.419 106.452 L 177.419 119.355 L 177.419 132.258 L 177.419 145.161 L 177.419 158.065 L 177.419 170.968 L 177.419 183.871 L 177.419 196.774 L 177.419 209.677 L 177.419 222.581 L 177.419 235.484 L 177.419 248.387 L 177.419 261.29 L 177.419 274.194 L 177.419 287.097 L 177.419 300 L 177.419 312.903 L 177.419 325.806 L 177.419 338.71 L 177.419 351.613 L 177.419 364.516 L 177.419 377.419 L 177.419 390.323 L 177.419 403.226 L 177.419 416.129 L 177.419 429.032 L 177.419 441.935 L 177.419 454.839 L 177.419 467.742 L 177.419 480.645 L 177.419 493.548 L 177.419 493.548 L 177.419 493.548 L 177.419 493.548 L 177.419 493.548 L 177.419 493.548 L 177.419 493.548 L 177.419 493.548 L 177.419 493.548 L 177.419 493.548 L 177.419 493.548 L 177.419 493.548 L 177.419 493.548 L 177.419 493.548 L 177.419 493.548 L 198.925 493.548 L 220.43 493.548 L 241.935 493.548 L 263.441 493.548 L 284.946 493.548 L 306.452 493.548 L 327.957 493.548 L 349.462 493.548 L 370.968 493.548 L 392.473 493.548 L 413.978 493.548 L 435.484 493.548 L 456.989 493.548 L 478.495 493.548 L 500 493.548 L 521.505 493.548 L 543.011 493.548 L 564.516 493.548 L 586.021 493.548 L 607.527 493.548 L 629.032 493.548 L 650.538 493.548 L 672.043 493.548 L 693.548 493.548 L 715.054 493.548 L 736.559 493.548 L 758.065 493.548 L 779.57 493.548 L 801.075 493.548 L 822.581 493.548 L 822.581 493.548 L 822.581 493.548 L 822.581 493.548 L 822.581 493.548 L 822.581 493.548 L 822.581 493.548 L 822.581 493.548"/> </g>
<g stroke="#007f00" stroke-dasharray=" 9.79796,9.79796" stroke-dashoffset="0.0547755" stroke-width="1.22474"><path d=" M 338.71 493.548 L 338.71 493.548 L 338.71 493.548 L 338.71 493.548 L 338.71 493.548 L 338.71 493.548 L 338.71 493.548 L 338.71 493.548"/> </g>
<g stroke="#007f00" stroke-dasharray=" 9.79796,9.79796" stroke-dashoffset="3.37237" stroke-width="1.22474"><path d=" M 500 493.548 L 500 493.548 L 500 493.548 L 500 493.548 L 500 493.548 L 500 493.548 L 500 493.548 L 500 493.548"/> </g>
<g stroke="#007f00" stroke-dasharray=" 9.79796,9.79796" stroke-dashoffset="6.68996" stroke-width="1.22474"><path d=" M 661.29 493.548 L 661.29 493.548 L 661.29 493.548 L 661.29 493.548 L 661.29 493.548 L 661.29 493.548 L 661.29 493.548 L 661.29 493.548"/> </g>
<g stroke="#007f00" stroke-dasharray=" 9.79796,9.79796" stroke-dashoffset="8.00219" stroke-width="1.22474"><path d=" M 177.419 396.774 L 177.419 396.774 L 177.419 396.774 L 177.419 396.774 L 177.419 396.774 L 177.419 396.774 L 177.419 396.774 L 177.419 396.774"/> </g>
<g stroke="#007f00" stroke-dasharray=" 9.79796,9.79796" stroke-dashoffset="6.99951" stroke-width="1.22474"><path d=" M 177.419 300 L 177.419 300 L 177.419 300 L 177.419 300 L 177.419 300 L 177.419 300 L 177.419 300 L 177.419 300"/> </g>
<g stroke="#007f00" stroke-dasharray=" 9.79796,9.79796" stroke-dashoffset="5.99682" stroke-width="1.22474"><path d=" M 177.419 203.226 L 177.419 203.226 L 177.419 203.226 L 177.419 203.226 L 177.419 203.226 L 177.419 203.226 L 177.419 203.226 L 177.419 203.226"/> </g>
<g stroke="#000000" stroke-dasharray="" stroke-dashoffset="19.4014" stroke-width="1.22474"><path d=" M 177.419 485.063 L 177.419 493.548 L 177.419 493.548 L 177.419 493.548 L 177.419 493.548 L 177.419 493.548 L 177.419 493.548 L 177.419 493.548 L 185.905 493.548 L 177.419 493.548 L 177.419 485.063 L 177.419 493.548 L 177.419 493.548 L 177.419 493.548 L 177.419 493.548 L 177.419 493.548 L 185.905 493.548 L 177.419 493.548 L 177.419 485.063 L 177.419 493.548 L 177.419 493.548 L 177.419 493.548 L 185.905 493.548"/> </g>
<g stroke="#000000" stroke-dasharray="" stroke-dashoffset="9.28429" stroke-width="1.22474"><path d=" M 500 118.452 L 500 106.452 L 521.505 106.452 L 543.011 106.452 L 564.516 106.452 L 586.021 106.452 L 607.527 106.452 L 629.032 106.452 L 650.538 106.452 L 672.043 106.452 L 693.548 106.452 L 715.054 106.452 L 736.559 106.452 L 758.065 106.452 L 779.57 106.452 L 801.075 106.452 L 822.581 106.452 L 822.581 106.452 L 822.581 106.452 L 822.581 106.452 L 822.581 106.452 L 822.581 106.452 L 822.581 106.452 L 822.581 106.452 L 822.581 106.452 L 822.581 106.452 L 822.581 118.452 L 822.581 106.452 L 810.581 106.452 L 822.581 106.452 L 822.581 119.355 L 822.581 132.258 L 822.581 145.161 L 822.581 158.065 L 822.581 170.968 L 822.581 183.871 L 822.581 196.774 L 822.581 209.677 L 822.581 222.581 L 822.581 235.484 L 822.581 248.387 L 822.581 261.29 L 822.581 274.194 L 822.581 287.097 L 822.581 300 L 810.581 300"/> </g>
<g stroke="#000000" stroke-dasharray="" stroke-dashoffset="18.9576" stroke-width="1.22474"><path d=" M 189.419 300 L 177.419 300 L 177.419 287.097 L 177.419 274.194 L 177.419 261.29 L 177.419 248.387 L 177.419 235.484 L 177.419 222.581 L 177.419 209.677 L 177.419 196.774 L 177.419 183.871 L 177.419 170.968 L 177.419 158.065 L 177.419 145.161 L 177.419 132.258 L 177.419 119.355 L 177.419 106.452 L 177.419 106.452 L 177.419 106.452 L 177.419 106.452 L 177.419 106.452 L 177.419 106.452 L 177.419 106.452 L 177.419 106.452 L 177.419 106.452 L 177.419 106.452 L 189.419 106.452 L 177.419 106.452 L 198.925 106.452 L 220.43 106.452 L 241.935 106.452 L 263.441 106.452 L 284.946 106.452 L 306.452 106.452 L 327.957 106.452 L 349.462 106.452 L 370.968 106.452 L 392.473 106.452 L 413.978 106.452 L 435.484 106.452 L 456.989 106.452 L 478.495 106.452 L 500 106.452 L 500 106.452"/> </g>
<g stroke="#000000" stroke-dasharray="" stroke-dashoffset="0.978019" stroke-width="1.22474"><path d=" M 500 481.548 L 500 493.548 L 521.505 493.548 L 543.011 493.548 L 564.516 493.548 L 586.021 493.548 L 607.527 493.548 L 629.032 493.548 L 650.538 493.548 L 672.043 493.548 L 693.548 493.548 L 715.054 493.548 L 736.559 493.548 L 758.065 493.548 L 779.57 493.548 L 801.075 493.548 L 822.581 493.548 L 822.581 493.548 L 822.581 493.548 L 822.581 493.548 L 822.581 493.548 L 822.581 493.548 L 822.581 493.548 L 822.581 493.548 L 822.581 493.548 L 822.581 493.548 L 822.581 481.548 L 822.581 493.548 L 810.581 493.548 L 822.581 493.548 L 822.581 480.645 L 822.581 467.742 L 822.581 454.839 L 822.581 441.935 L 822.581 429.032 L 822.581 416.129 L 822.581 403.226 L 822.581 390.323 L 822.581 377.419 L 822.581 364.516 L 822.581 351.613 L 822.581 338.71 L 822.581 325.806 L 822.581 312.903 L 822.581 300 L 822.581 300"/> </g>
<g stroke="#000000" stroke-dasharray="" stroke-dashoffset="19.4014" stroke-width="1.22474"><path d=" M 177.419 300 L 177.419 300 L 177.419 312.903 L 177.419 325.806 L 177.419 338.71 L 177.419 351.613 L 177.419 364.516 L 177.419 377.419 L 177.419 390.323 L 177.419 403.226 L 177.419 416.129 L 177.419 429.032 L 177.419 441.935 L 177.419 454.839 L 177.419 467.742 L 177.419 480.645 L 177.419 493.548 L 177.419 481.548 L 177.419 493.548 L 177.419 493.548 L 177.419 493.548 L 177.419 493.548 L 177.419 493.548 L 189.419 493.548 L 177.419 493.548 L 177.419 481.548"/> </g>
<g stroke="#000000" stroke-dasharray="" stroke-dashoffset="0.948967" stroke-width="1.22474"><path d=" M 338.71 481.548 L 338.71 493.548 L 338.71 493.548"/> </g>
<g stroke="#000000" stroke-dasharray="" stroke-dashoffset="8.94897" stroke-width="1.22474"><path d=" M 189.419 493.548 L 177.419 493.548 L 198.925 493.548 L 220.43 493.548 L 241.935 493.548 L 263.441 493.548 L 284.946 493.548 L 306.452 493.548 L 327.957 493.548 L 349.462 493.548 L 370.968 493.548 L 392.473 493.548 L 413.978 493.548 L 435.484 493.548 L 456.989 493.548 L 478.495 493.548 L 500 493.548 L 500 493.548"/> </g>
<g stroke="#000000" stroke-dasharray="" stroke-dashoffset="16.949" stroke-width="1.22474"><path d=" M 661.29 481.548 L 661.29 493.548 L 661.29 493.548"/> </g>
<g stroke="#000000" stroke-dasharray="" stroke-dashoffset="5.07472" stroke-width="1.22474"><path d=" M 189.419 396.774 L 177.419 396.774 L 177.419 396.774"/> </g>
<g stroke="#000000" stroke-dasharray="" stroke-dashoffset="1.4788" stroke-width="1.22474"><path d=" M 189.419 203.226 L 177.419 203.226 L 177.419 203.226"/> </g>
<g stroke="#000000" stroke-dasharray="" stroke-dashoffset="4.88021" stroke-width="1.22474"><path d=" M 338.71 118.452 L 338.71 106.452 L 338.71 106.452"/> </g>
<g stroke="#000000" stroke-dasharray="" stroke-dashoffset="1.28429" stroke-width="1.22474"><path d=" M 661.29 118.452 L 661.29 106.452 L 661.29 106.452"/> </g>
<g stroke="#000000" stroke-dasharray="" stroke-dashoffset="10.6223" stroke-width="1.22474"><path d=" M 810.581 396.774 L 822.581 396.774 L 822.581 396.774"/> </g>
<g stroke="#000000" stroke-dasharray="" stroke-dashoffset="7.02637" stroke-width="1.22474"><path d=" M 810.581 203.226 L 822.581 203.226 L 822.581 203.226"/> </g>
<g stroke="#000000" stroke-dasharray="" stroke-dashoffset="8.47612" stroke-width="1.22474"><path d=" M 177.419 118.452 L 177.419 106.452 L 177.419 118.452"/> </g>
</g></svg>